<?xml version="1.0" encoding="UTF-8"?>
<svg xmlns="http://www.w3.org/2000/svg" version="1.1" viewBox="0 0 110 135">
  <!-- Generator: Adobe Illustrator 28.7.1, SVG Export Plug-In . SVG Version: 1.2.0 Build 142)  -->
  <g>
    <path d="M55,22.5c-11.5,0-20.8,9.4-20.8,20.8h0c0,5.4,2.6,10.3,6.3,14.1-13.3,3.8-22.9,15.6-22.9,29.7,0,5.7,4.7,10.4,10.4,10.4h54.2c5.7,0,10.4-4.7,10.4-10.4,0-14.1-9.6-25.9-22.9-29.7,3.7-3.8,6.2-8.7,6.2-14.1h0c0-11.5-9.4-20.8-20.8-20.8h0ZM55,26.7c9.2,0,16.7,7.4,16.7,16.7,0,5.3-2.5,10.2-6.7,13.3h0c-.7.5-1,1.3-.8,2.2.2.8.9,1.4,1.7,1.6,13,2.2,22.5,13.5,22.5,26.7,0,3.5-2.8,6.2-6.2,6.2H27.9c-3.5,0-6.2-2.8-6.2-6.2,0-13.2,9.5-24.5,22.6-26.7.8-.1,1.5-.8,1.7-1.6.2-.8-.1-1.7-.8-2.2-4.2-3.1-6.8-8.1-6.8-13.4h0c0-9.2,7.4-16.7,16.7-16.7h0Z"/>
  </g>
</svg>