<svg width="446.27" height="493.6000000000001" xmlns="http://www.w3.org/2000/svg">

 <g>
  <title>Layer 1</title>
  <path d="m427.85666,210.5495l0,6.76883l-39.11896,133.64798c-1.92792,6.90073 -7.38062,8.7348 -14.54547,9.22299l-267.68908,-0.03958l-4.79092,31.0336c7.33749,5.81885 13.69669,11.8092 17.63876,20.12177l185.94073,-0.02637c2.2157,-0.38263 4.60391,-6.34662 6.2872,-8.52368c38.37088,-49.65121 119.371,6.32019 78.89969,53.55682c-27.17749,31.71979 -81.74832,17.68073 -87.24426,-21.73151l-178.32989,-0.03955l-2.46021,0.75201c-5.20819,31.1261 -42.71576,48.43738 -73.05844,32.48511c-23.26414,-12.23138 -31.17712,-39.78168 -18.14229,-61.24927c8.87695,-14.60645 28.31409,-24.59467 46.55711,-22.3252l6.01389,-36.72055l-36.34219,-206.28418l-35.21999,-16.74393c-10.24371,-10.96469 -0.11508,-23.82942 15.02028,-18.27451c8.24391,3.02158 28.96153,12.69321 36.21272,17.16617c11.09254,6.83481 8.10002,21.75784 11.20768,32.57742l2.90619,1.84726l339.78356,44.71646c5.15057,0.79169 7.81226,4.38062 10.45947,8.07507l0,0l0.0144,-0.01318zm-286.9536,-21.77112l-61.43357,-8.31259l6.11459,36.11359l57.82233,5.99036l-2.50336,-33.79135l0,0zm84.46753,11.24182l-59.85092,-7.52094l3.22272,32.74896l56.6138,5.59454l0,-30.82257l0.0144,0zm24.60217,3.00836l0,30.07047l60.67094,5.26462c0.15836,-9.10425 2.76242,-18.0238 3.28033,-27.0621l-63.93687,-8.27298l0,0l-0.0144,0zm143.41203,43.5817l6.44543,-21.59952l-0.64734,-2.09793l-60.67108,-7.83759l-3.35217,25.92734l58.21075,5.6077l0.0144,0zm-247.57567,-0.69931l-55.69303,-5.3042l6.10019,36.1268l52.1106,2.96878l-2.50336,-33.79138l-0.0144,0zm79.56146,7.48135l-54.91611,-5.26462l2.46024,33.0788l52.47028,3.00836l0,-30.82254l0,0l-0.0144,0zm24.60217,2.25626l0,29.31839l53.29033,3.00836c-0.63303,-3.50977 4.34494,-26.12527 3.2803,-27.0621l-56.57063,-5.26465zm136.89464,12.78558l-55.73615,-5.26465l-3.28036,26.30997l51.95242,2.15073l1.17969,-1.17429l5.8988,-22.03497l-0.0144,0l0,0.01321zm-279.12691,69.15283l45.49244,0l-2.54651,-34.50385l-49.49213,-3.10074l6.5462,37.60458zm117.6301,-30.82257l-49.99567,-3.00836l2.46021,33.83087l47.54987,0l0,-30.82251l0,0l-0.0144,0zm24.60217,0.75208l0,30.0705l45.90968,0l4.10037,-27.04892l-50.01006,-3.00836l0,0l0,-0.01321zm70.49748,30.0705l46.72974,0l6.56055,-23.30167c-16.35828,-0.72568 -32.88922,-2.59933 -49.23309,-1.92639l-4.04279,25.22806l-0.0144,0zm-247.0146,68.69101c-33.14822,0.6861 -30.73118,48.25256 3.9709,44.82196c28.99026,-2.8764 27.26379,-45.46851 -3.9709,-44.82196zm277.88966,0.01318c-32.88922,0.34308 -31.55124,47.71161 3.13641,44.79565c29.81042,-2.50696 27.73865,-45.12555 -3.13641,-44.79565z"/>
  <path d="m344.5932,39.30698l11.61246,31.9451c6.12326,16.30894 6.41058,30.63992 7.89267,41.07295c1.48206,10.43303 -3.86111,23.02562 -7.06342,22.92998c-3.20227,-0.09567 -7.96606,-3.62595 -9.57825,-6.00952c-1.61221,-2.38358 -2.78445,-5.93988 -6.31213,-10.72354c-3.52774,-4.78366 -5.76608,-12.92598 -9.73795,6.99277c-11.16479,7.62769 -26.59775,8.53143 -40.11414,8.18799c-32.30859,-0.81335 -62.42378,-16.43024 -86.98628,-34.74028c-6.22472,-4.64529 -22.17143,-16.30373 -17.44868,-24.88939c12.76546,-16.10487 26.49937,-31.89009 42.18935,-45.73558c12.98276,-11.45963 29.87743,-15.56262 45.03383,-19.32224c15.15634,-3.75963 21.22021,-1.79396 37.36484,0.42911c16.14459,2.22305 27.53833,16.41002 33.14771,29.86266z"/>
  <path d="m182.52702,78.90001c0.45442,1.67577 0.37181,3.44356 0.99141,5.10091c2.68495,7.23705 13.13559,14.73187 19.68279,19.44608c35.02834,25.2467 81.70525,44.87698 126.56465,30.18192l6.73303,-3.35153c0.84665,4.69577 2.08594,8.61819 1.28046,13.46124c-3.34583,19.99854 -21.81012,34.12274 -44.32239,33.62555c-25.30051,-0.55246 -57.62328,-12.11697 -79.22676,-23.49738c-13.21828,-6.96078 -39.81996,-22.41086 -47.15201,-34.14108c-6.85689,-10.95682 -0.33037,-26.84883 8.01357,-35.81686c2.31322,-2.46759 4.48189,-3.35152 7.41458,-5.00883l0.02068,0z"/>
  <path d="m344.59912,136.70792l3.87827,-1.18805l-3.58627,-1.9631l4.03174,-0.36508l-3.1539,-2.66812l4.01489,0.47018l-2.59985,-3.26859l3.86328,1.28967l-1.95596,-3.73923l3.53946,2.0603l-1.21475,-4.06732l3.09213,2.74951l-0.4455,-4.24591l2.52313,3.33319l0.35376,-4.25381l1.86237,3.79153l1.13803,-4.09988l1.12305,4.09988l1.8624,-3.79153l0.33878,4.25381l2.53809,-3.33319l-0.44547,4.24591l3.0921,-2.74951l-1.21475,4.06732l3.53946,-2.0603l-1.95596,3.73923l3.86328,-1.28967l-2.59985,3.26859l4.01489,-0.47415l-3.1539,2.67209l4.03174,0.36508l-3.60123,1.9631l3.89322,1.18805l-3.89322,1.19196l3.60123,1.9631l-4.03174,0.36511l3.1539,2.66812l-4.01489,-0.47015l2.59985,3.26855l-3.86328,-1.29364l1.95596,3.73874l-3.53946,-2.05585l1.21475,4.06732l-3.0921,-2.74509l0.44547,4.24146l-2.53809,-3.33319l-0.33878,4.24988l-1.8624,-3.7876l-1.12305,4.09991l-1.13803,-4.09991l-1.86237,3.7876l-0.35376,-4.24988l-2.52313,3.33319l0.4455,-4.24146l-3.09213,2.74509l1.21475,-4.06732l-3.53946,2.05585l1.95596,-3.73874l-3.86328,1.29364l2.59985,-3.26855l-4.01489,0.47015l3.1539,-2.66812l-4.03174,-0.36511l3.60123,-1.9631l-3.89322,-1.19196z"/>
 </g>
</svg>