<svg xmlns="http://www.w3.org/2000/svg">
  <defs>
    <symbol id="icon-shirt" viewBox="0 0 64 80">
        <defs>
            <style>
            .cls-1 {
                stroke: #ff583e;
            }

            .cls-1, .cls-2 {
                fill: none;
                stroke-miterlimit: 10;
            }

            .cls-2 {
                stroke: #000;
                stroke-width: 2px;
            }

            .cls-3 {
                display: none;
            }
            </style>
        </defs>
        <!-- Generator: Adobe Illustrator 28.7.1, SVG Export Plug-In . SVG Version: 1.2.0 Build 142)  -->
        <g>
            <g id="Layer_1">
            <g class="cls-3">
                <rect x="-20" y="-188" width="20" height="430"/>
                <rect x="-211" y="-20" width="1023" height="20"/>
                <rect x="-228.9" y="-214.7" width="1058.4" height="519.8"/>
            </g>
            <g class="cls-3">
                <path d="M39.9,2.1c0,8.1-7.9,8.6-7.9,8.6,0,0-7.9-.5-7.9-8.6h-10L0,9.3l5.6,15.6,8.1-3.5v40.5h36.8V21.5l8.1,3.5,5.6-15.7-14.1-7.2h-10Z"/>
                <g>
                <path d="M21.8,38.6l-3.2-9.1,2.4-.8,3.1,2.7c.9.8,1.8,1.7,2.6,2.6h0c-.6-1.2-1-2.4-1.5-3.7l-.9-2.7,1.9-.7,3.2,9.1-2.2.8-3.2-2.8c-.9-.8-1.9-1.8-2.7-2.7h0c.5,1.2,1,2.5,1.5,4l1,2.7-1.9.7Z"/>
                <path d="M31.7,32.2c.4.8,1.3.9,2.3.6.7-.2,1.2-.5,1.7-.9l.8,1.3c-.6.5-1.4.9-2.2,1.2-2.2.8-4,0-4.7-2.1-.6-1.7-.2-3.9,2.1-4.7,2.1-.7,3.5.6,4.1,2.3.1.4.2.7.2.8l-4.3,1.5ZM33.6,29.9c-.2-.5-.7-1.3-1.6-.9-.9.3-.9,1.2-.8,1.8l2.4-.9Z"/>
                <path d="M37.2,25.8l1.5,2.5c.4.6.8,1.3,1.1,2h0c-.1-.8-.2-1.6-.3-2.3l-.2-3,1.6-.6,1.6,2.4c.4.7.9,1.4,1.3,2.1h0c-.2-.8-.3-1.6-.4-2.4l-.3-2.8,2-.7.3,7.3-1.9.7-1.4-2.1c-.4-.6-.7-1.1-1.1-1.9h0c.2.9.2,1.5.3,2.2l.2,2.6-1.9.7-4.2-5.9,2.1-.7Z"/>
                </g>
            </g>
            <g class="cls-3">
                <path d="M49.4,4.1l12.1,6.2-4.3,12-6.1-2.7-2.8-1.2v41.5H15.6V18.4l-2.8,1.2-6.1,2.7L2.5,10.3l12.1-6.2h7.7c1.2,8,9.5,8.6,9.6,8.6h.1s.1,0,.1,0c0,0,8.4-.6,9.6-8.6h7.7M49.9,2.1h-10c0,8.1-7.9,8.6-7.9,8.6,0,0-7.9-.5-7.9-8.6h-10L0,9.3l5.6,15.6,8.1-3.5v40.5h36.8V21.5l8.1,3.5,5.6-15.7-14.1-7.2h0Z"/>
                <path d="M21.8,38.6l-3.2-9.1,2.4-.8,3.1,2.7c.9.8,1.8,1.7,2.6,2.6h0c-.6-1.2-1-2.4-1.5-3.7l-.9-2.7,1.9-.7,3.2,9.1-2.2.8-3.2-2.8c-.9-.8-1.9-1.8-2.7-2.7h0c.5,1.2,1,2.5,1.5,4l1,2.7-1.9.7Z"/>
                <path d="M31.7,32.2c.4.8,1.3.9,2.3.6.7-.2,1.2-.5,1.7-.9l.8,1.3c-.6.5-1.4.9-2.2,1.2-2.2.8-4,0-4.7-2.1-.6-1.7-.2-3.9,2.1-4.7,2.1-.7,3.5.6,4.1,2.3.1.4.2.7.2.8l-4.3,1.5ZM33.6,29.9c-.2-.5-.7-1.3-1.6-.9-.9.3-.9,1.2-.8,1.8l2.4-.9Z"/>
                <path d="M37.2,25.8l1.5,2.5c.4.6.8,1.3,1.1,2h0c-.1-.8-.2-1.6-.3-2.3l-.2-3,1.6-.6,1.6,2.4c.4.7.9,1.4,1.3,2.1h0c-.2-.8-.3-1.6-.4-2.4l-.3-2.8,2-.7.3,7.3-1.9.7-1.4-2.1c-.4-.6-.7-1.1-1.1-1.9h0c.2.9.2,1.5.3,2.2l.2,2.6-1.9.7-4.2-5.9,2.1-.7Z"/>
            </g>
            <g class="cls-3">
                <g>
                <g>
                    <line class="cls-2" x1="32" y1="23.3" x2="32" y2="41"/>
                    <line class="cls-2" x1="23.1" y1="32.2" x2="40.9" y2="32.2"/>
                </g>
                <path d="M49.4,4.1l12.1,6.2-4.3,12-6.1-2.7-2.8-1.2v41.5H15.6V18.4l-2.8,1.2-6.1,2.7L2.5,10.3l12.1-6.2h7.7c1.2,8,9.5,8.6,9.6,8.6h.1s.1,0,.1,0c0,0,8.4-.6,9.6-8.6h7.7M49.9,2.1h-10c0,8.1-7.9,8.6-7.9,8.6,0,0-7.9-.5-7.9-8.6h-10L0,9.3l5.6,15.6,8.1-3.5v40.5h36.8V21.5l8.1,3.5,5.6-15.7-14.1-7.2h0Z"/>
                </g>
            </g>
            <g>
                <polygon points="31.5 41 32.5 41 32.5 32.7 40.9 32.7 40.9 31.7 32.5 31.7 32.5 23.3 31.5 23.3 31.5 31.7 23.1 31.7 23.1 32.7 31.5 32.7 31.5 41"/>
                <path d="M32,61.9h18.4V21.5l8.1,3.5,5.6-15.7-14.1-7.2h-10c0,8.1-7.9,8.6-7.9,8.6,0,0-7.9-.5-7.9-8.6h-10L0,9.3l5.6,15.6,8.1-3.5v40.5h18.4ZM13.2,20.6l-7.1,3.1L1.2,9.8,14.4,3.1h8.8c.5,6.4,5.9,8.4,8.8,8.6h0s0,0,0,0c2.9-.2,8.3-2.2,8.8-8.6h8.8l13.1,6.7-4.9,13.8-7.1-3.1-1.4-.6v41H14.6V19.9l-1.4.6Z"/>
            </g>
            <g class="cls-3">
                <path d="M32,0C14.3,0,0,14.3,0,32s14.3,32,32,32,32-14.3,32-32S49.7,0,32,0h0Z"/>
                <g>
                <path d="M14.6,60.9V19.9l-8.5,3.7L1.2,9.8,14.4,3.1h8.8c.6,8,8.7,8.6,8.8,8.6h0s0,0,0,0c0,0,8.2-.6,8.8-8.6h8.8l13.1,6.7-4.9,13.8-8.5-3.7v41H14.6Z"/>
                <path d="M49.4,4.1l12.1,6.2-4.3,12-6.1-2.7-2.8-1.2v41.5H15.6V18.4l-2.8,1.2-6.1,2.7L2.5,10.3l12.1-6.2h7.7c1.2,8,9.5,8.6,9.6,8.6h.1s.1,0,.1,0c0,0,8.4-.6,9.6-8.6h7.7M49.9,2.1h-10c0,8.1-7.9,8.6-7.9,8.6,0,0-7.9-.5-7.9-8.6h-10L0,9.3l5.6,15.6,8.1-3.5v40.5h36.8V21.5l8.1,3.5,5.6-15.7-14.1-7.2h0Z"/>
                </g>
                <path d="M21.8,38.6l-3.2-9.1,2.4-.8,3.1,2.7c.9.8,1.8,1.7,2.6,2.6h0c-.6-1.2-1-2.4-1.5-3.7l-.9-2.7,1.9-.7,3.2,9.1-2.2.8-3.2-2.8c-.9-.8-1.9-1.8-2.7-2.7h0c.5,1.2,1,2.5,1.5,4l1,2.7-1.9.7Z"/>
                <path d="M31.7,32.2c.4.8,1.3.9,2.3.6.7-.2,1.2-.5,1.7-.9l.8,1.3c-.6.5-1.4.9-2.2,1.2-2.2.8-4,0-4.7-2.1-.6-1.7-.2-3.9,2.1-4.7,2.1-.7,3.5.6,4.1,2.3.1.4.2.7.2.8l-4.3,1.5ZM33.6,29.9c-.2-.5-.7-1.3-1.6-.9-.9.3-.9,1.2-.8,1.8l2.4-.9Z"/>
                <path d="M37.2,25.8l1.5,2.5c.4.6.8,1.3,1.1,2h0c-.1-.8-.2-1.6-.3-2.3l-.2-3,1.6-.6,1.6,2.4c.4.7.9,1.4,1.3,2.1h0c-.2-.8-.3-1.6-.4-2.4l-.3-2.8,2-.7.3,7.3-1.9.7-1.4-2.1c-.4-.6-.7-1.1-1.1-1.9h0c.2.9.2,1.5.3,2.2l.2,2.6-1.9.7-4.2-5.9,2.1-.7Z"/>
            </g>
            <g class="cls-3">
                <g>
                <path d="M32,0C14.3,0,0,14.3,0,32s14.3,32,32,32,32-14.3,32-32S49.7,0,32,0h0Z"/>
                <g>
                    <path d="M14.6,60.9V19.9l-8.5,3.7L1.2,9.8,14.4,3.1h8.8c.6,8,8.7,8.6,8.8,8.6h0s0,0,0,0c0,0,8.2-.6,8.8-8.6h8.8l13.1,6.7-4.9,13.8-8.5-3.7v41H14.6Z"/>
                    <path d="M49.4,4.1l12.1,6.2-4.3,12-6.1-2.7-2.8-1.2v41.5H15.6V18.4l-2.8,1.2-6.1,2.7L2.5,10.3l12.1-6.2h7.7c1.2,8,9.5,8.6,9.6,8.6h.1s.1,0,.1,0c0,0,8.4-.6,9.6-8.6h7.7M49.9,2.1h-10c0,8.1-7.9,8.6-7.9,8.6,0,0-7.9-.5-7.9-8.6h-10L0,9.3l5.6,15.6,8.1-3.5v40.5h36.8V21.5l8.1,3.5,5.6-15.7-14.1-7.2h0Z"/>
                </g>
                <path d="M21.8,38.6l-3.2-9.1,2.4-.8,3.1,2.7c.9.8,1.8,1.7,2.6,2.6h0c-.6-1.2-1-2.4-1.5-3.7l-.9-2.7,1.9-.7,3.2,9.1-2.2.8-3.2-2.8c-.9-.8-1.9-1.8-2.7-2.7h0c.5,1.2,1,2.5,1.5,4l1,2.7-1.9.7Z"/>
                <path d="M31.7,32.2c.4.8,1.3.9,2.3.6.7-.2,1.2-.5,1.7-.9l.8,1.3c-.6.5-1.4.9-2.2,1.2-2.2.8-4,0-4.7-2.1-.6-1.7-.2-3.9,2.1-4.7,2.1-.7,3.5.6,4.1,2.3.1.4.2.7.2.8l-4.3,1.5ZM33.6,29.9c-.2-.5-.7-1.3-1.6-.9-.9.3-.9,1.2-.8,1.8l2.4-.9Z"/>
                <path d="M37.2,25.8l1.5,2.5c.4.6.8,1.3,1.1,2h0c-.1-.8-.2-1.6-.3-2.3l-.2-3,1.6-.6,1.6,2.4c.4.7.9,1.4,1.3,2.1h0c-.2-.8-.3-1.6-.4-2.4l-.3-2.8,2-.7.3,7.3-1.9.7-1.4-2.1c-.4-.6-.7-1.1-1.1-1.9h0c.2.9.2,1.5.3,2.2l.2,2.6-1.9.7-4.2-5.9,2.1-.7Z"/>
                </g>
            </g>
            <g class="cls-3">
                <g>
                <path d="M33.6,29.9c-.2-.5-.7-1.3-1.6-.9-.9.3-.9,1.2-.8,1.8l2.4-.9Z"/>
                <path d="M13.6,21.5v40.5h36.8V21.5l8.1,3.5,5.6-15.7-14.1-7.2h-10c0,8.1-7.9,8.6-7.9,8.6,0,0-7.9-.5-7.9-8.6h-10L0,9.3l5.6,15.6,8-3.5ZM37.2,25.8l1.5,2.5c.4.6.8,1.3,1.1,2h0c-.1-.8-.2-1.6-.3-2.3l-.2-3,1.6-.6,1.6,2.4c.4.7.9,1.4,1.3,2.1h0c-.2-.8-.3-1.6-.4-2.4l-.3-2.8,2-.7.3,7.3-1.9.7-1.4-2.1c-.4-.6-.7-1.1-1.1-1.9h0c.2.9.2,1.5.3,2.2l.2,2.6-1.9.7-4.2-5.9,2.1-.7ZM31.6,27.6c2.1-.7,3.5.6,4.1,2.3.1.4.2.7.2.8l-4.3,1.5c.4.8,1.3.9,2.3.6.7-.2,1.2-.5,1.7-.9l.8,1.3c-.6.5-1.4.9-2.2,1.2-2.2.8-4,0-4.7-2.1-.6-1.7-.2-3.9,2.1-4.7ZM21,28.7l3.1,2.7c.9.8,1.8,1.7,2.6,2.6h0c-.6-1.2-1-2.4-1.5-3.7l-.9-2.7,1.9-.7,3.2,9.1-2.2.8-3.2-2.8c-.9-.8-1.9-1.8-2.7-2.7h0c.5,1.2,1,2.5,1.5,4l1,2.7-1.9.7-3.2-9.1,2.4-.8Z"/>
                </g>
            </g>
            <g class="cls-3">
                <g>
                <g>
                    <path d="M44.4,64h-24.8c-4.4,0-8-3.6-8-8V8C11.6,3.6,15.2,0,19.6,0h24.8C48.8,0,52.4,3.6,52.4,8v48c0,4.4-3.6,8-8,8Z"/>
                    <rect x="14.8" y="7.6" width="35" height="47.1"/>
                    <circle cx="32" cy="3.8" r="1.5"/>
                    <path d="M35.4,61h-6.8c-.9,0-1.7-.8-1.7-1.7s.8-1.7,1.7-1.7h6.8c.9,0,1.7.8,1.7,1.7,0,.9-.8,1.7-1.7,1.7Z"/>
                </g>
                <line class="cls-1" x1="18.9" y1="44.3" x2="45.1" y2="44.3"/>
                <line class="cls-1" x1="21.8" y1="47.6" x2="42.2" y2="47.6"/>
                <rect x="20" y="14.1" width="24" height="24"/>
                </g>
                <g>
                <circle cx="36" cy="32.4" r="2"/>
                <circle cx="30" cy="32.4" r="2"/>
                <polygon points="28.3 22.7 27 18.9 23.8 18.9 23.8 17.5 28 17.5 29.6 22.2 28.3 22.7"/>
                <polygon points="25.9 21.8 40.4 21.8 37.6 29.5 28.3 29.5 25.9 21.8"/>
                </g>
            </g>
            <g class="cls-3">
                <path d="M42,16.1v20h-20v-20h20M44,14.1h-24v24h24V14.1h0Z"/>
                <path d="M36,30.4c-1.1,0-2,.9-2,2s.9,2,2,2,2-.9,2-2-.9-2-2-2h0Z"/>
                <path d="M30,30.4c-1.1,0-2,.9-2,2s.9,2,2,2,2-.9,2-2-.9-2-2-2h0Z"/>
                <polygon points="28 17.5 23.8 17.5 23.8 18.9 27 18.9 28.3 22.7 29.6 22.2 28 17.5"/>
                <path d="M37.5,23.8l-1.3,3.7h-6.4l-1.2-3.7h8.9M40.4,21.8h-14.4l2.4,7.7h9.3l2.7-7.7h0Z"/>
                <g>
                <path d="M47,9.6v43.1h-30V9.6h30M49,7.6H15v47.1h34V7.6h0Z"/>
                <path d="M32,3.3c-.8,0-1.5.7-1.5,1.5s.7,1.5,1.5,1.5,1.5-.7,1.5-1.5-.7-1.5-1.5-1.5h0Z"/>
                <path d="M35.4,56.6h-6.8c-.9,0-1.7.8-1.7,1.7s.8,1.7,1.7,1.7h6.8c.9,0,1.7-.8,1.7-1.7s-.8-1.7-1.7-1.7h0Z"/>
                <path d="M44.4,2c3.3,0,6,2.7,6,6v48c0,3.3-2.7,6-6,6h-24.8c-3.3,0-6-2.7-6-6V8c0-3.3,2.7-6,6-6h24.8M44.4,0h-24.8C15.2,0,11.6,3.6,11.6,8v48c0,4.4,3.6,8,8,8h24.8c4.4,0,8-3.6,8-8V8C52.4,3.6,48.8,0,44.4,0h0Z"/>
                <line class="cls-2" x1="19.9" y1="44.3" x2="44.1" y2="44.3"/>
                <line class="cls-2" x1="22.8" y1="47.6" x2="41.2" y2="47.6"/>
                </g>
            </g>
            <g class="cls-3">
                <path d="M42,16.1v20h-20v-20h20M44,14.1h-24v24h24V14.1h0Z"/>
                <path d="M36,30.4c-1.1,0-2,.9-2,2s.9,2,2,2,2-.9,2-2-.9-2-2-2h0Z"/>
                <path d="M30,30.4c-1.1,0-2,.9-2,2s.9,2,2,2,2-.9,2-2-.9-2-2-2h0Z"/>
                <polygon points="28 17.5 23.8 17.5 23.8 18.9 27 18.9 28.3 22.7 29.6 22.2 28 17.5"/>
                <path d="M37.5,23.8l-1.3,3.7h-6.4l-1.2-3.7h8.9M40.4,21.8h-14.4l2.4,7.7h9.3l2.7-7.7h0Z"/>
                <g>
                <path d="M47,9.6v43.1h-30V9.6h30M49,7.6H15v47.1h34V7.6h0Z"/>
                <path d="M32,3.3c-.8,0-1.5.7-1.5,1.5s.7,1.5,1.5,1.5,1.5-.7,1.5-1.5-.7-1.5-1.5-1.5h0Z"/>
                <path d="M35.4,56.6h-6.8c-.9,0-1.7.8-1.7,1.7s.8,1.7,1.7,1.7h6.8c.9,0,1.7-.8,1.7-1.7s-.8-1.7-1.7-1.7h0Z"/>
                <path d="M44.4,2c3.3,0,6,2.7,6,6v48c0,3.3-2.7,6-6,6h-24.8c-3.3,0-6-2.7-6-6V8c0-3.3,2.7-6,6-6h24.8M44.4,0h-24.8C15.2,0,11.6,3.6,11.6,8v48c0,4.4,3.6,8,8,8h24.8c4.4,0,8-3.6,8-8V8C52.4,3.6,48.8,0,44.4,0h0Z"/>
                <line class="cls-2" x1="19.9" y1="44.3" x2="44.1" y2="44.3"/>
                <line class="cls-2" x1="22.8" y1="47.6" x2="41.2" y2="47.6"/>
                </g>
            </g>
            <g class="cls-3">
                <g>
                <g>
                    <path d="M32,0C14.3,0,0,14.3,0,32s14.3,32,32,32,32-14.3,32-32S49.7,0,32,0h0Z"/>
                    <g>
                    <path d="M19.6,63c-3.9,0-7-3.1-7-7V8c0-3.9,3.1-7,7-7h24.8c3.9,0,7,3.1,7,7v48c0,3.9-3.1,7-7,7h-24.8Z"/>
                    <path d="M44.4,2c3.3,0,6,2.7,6,6v48c0,3.3-2.7,6-6,6h-24.8c-3.3,0-6-2.7-6-6V8c0-3.3,2.7-6,6-6h24.8M44.4,0h-24.8C15.2,0,11.6,3.6,11.6,8v48c0,4.4,3.6,8,8,8h24.8c4.4,0,8-3.6,8-8V8C52.4,3.6,48.8,0,44.4,0h0Z"/>
                    </g>
                    <g>
                    <rect x="16" y="8.6" width="32" height="45.1"/>
                    <path d="M47,9.6v43.1h-30V9.6h30M49,7.6H15v47.1h34V7.6h0Z"/>
                    </g>
                </g>
                <path d="M32,3.3c-.8,0-1.5.7-1.5,1.5s.7,1.5,1.5,1.5,1.5-.7,1.5-1.5-.7-1.5-1.5-1.5h0Z"/>
                <path d="M35.4,56.6h-6.8c-.9,0-1.7.8-1.7,1.7s.8,1.7,1.7,1.7h6.8c.9,0,1.7-.8,1.7-1.7s-.8-1.7-1.7-1.7h0Z"/>
                <line class="cls-2" x1="19.9" y1="44.3" x2="44.1" y2="44.3"/>
                <line class="cls-2" x1="22.8" y1="47.6" x2="41.2" y2="47.6"/>
                </g>
                <rect x="20" y="14.1" width="24" height="24"/>
                <circle cx="36" cy="32.4" r="2"/>
                <circle cx="30" cy="32.4" r="2"/>
                <polygon points="28.3 22.7 27 18.9 23.8 18.9 23.8 17.5 28 17.5 29.6 22.2 28.3 22.7"/>
                <path d="M37.5,23.8l-1.3,3.7h-6.4l-1.2-3.7h8.9M40.4,21.8h-14.4l2.4,7.7h9.3l2.7-7.7h0Z"/>
                <line class="cls-2" x1="19.9" y1="44.3" x2="44.1" y2="44.3"/>
                <line class="cls-2" x1="22.8" y1="47.6" x2="41.2" y2="47.6"/>
            </g>
            <g class="cls-3">
                <g>
                <rect x="18.9" y="43.8" width="26.2" height="1"/>
                <rect x="21.8" y="47.1" width="20.4" height="1"/>
                <path d="M19.6,0C15.2,0,11.6,3.6,11.6,8v48c0,4.4,3.6,8,8,8h24.8c4.4,0,8-3.6,8-8V8C52.4,3.6,48.8,0,44.4,0h-24.8ZM32,2.3c.8,0,1.5.7,1.5,1.5s-.7,1.5-1.5,1.5-1.5-.7-1.5-1.5.7-1.5,1.5-1.5ZM35.4,61h-6.8c-.9,0-1.7-.8-1.7-1.7s.8-1.7,1.7-1.7h6.8c.9,0,1.7.8,1.7,1.7,0,.9-.8,1.7-1.7,1.7ZM49.5,54.7H14.5V7.6h35v47.1Z"/>
                <path d="M44,14.1h-24v24h24V14.1ZM30,34.4c-1.1,0-2-.9-2-2s.9-2,2-2,2,.9,2,2-.9,2-2,2ZM36,34.4c-1.1,0-2-.9-2-2s.9-2,2-2,2,.9,2,2-.9,2-2,2ZM37.6,29.5h-9.3l-2.4-7.7h2l-1-2.8h-3.3v-1.4h4.3l1.4,4.2h10.9l-2.7,7.7Z"/>
                </g>
            </g>
            <g class="cls-3">
                <path d="M44.4,64h-24.8c-4.4,0-8-3.6-8-8V8C11.6,3.6,15.2,0,19.6,0h24.8C48.8,0,52.4,3.6,52.4,8v48c0,4.4-3.6,8-8,8Z"/>
                <rect x="14.8" y="7.6" width="35" height="47.1"/>
                <circle cx="32" cy="3.8" r="1.5"/>
                <path d="M35.4,61h-6.8c-.9,0-1.7-.8-1.7-1.7s.8-1.7,1.7-1.7h6.8c.9,0,1.7.8,1.7,1.7,0,.9-.8,1.7-1.7,1.7Z"/>
                <line class="cls-1" x1="18.9" y1="44.3" x2="45.1" y2="44.3"/>
                <line class="cls-1" x1="21.8" y1="47.6" x2="42.2" y2="47.6"/>
                <rect x="20" y="14.1" width="24" height="24"/>
                <path d="M36.3,22.1h-1.1v-2.5c0-.3-.3-.6-.6-.6h-5.3c-.3,0-.6.3-.6.6v2.5h-1.1v-2.5c0-.9.8-1.7,1.7-1.7h5.3c.9,0,1.7.8,1.7,1.7v2.5Z"/>
                <path d="M25.5,21.4l-2.5,12.2h18l-2.5-12.2h-12.9Z"/>
                <path d="M29.3,25.7c-.5,0-1-.4-1-1s.4-1,1-1,1,.4,1,1-.4,1-1,1ZM34.7,25.7c-.5,0-1-.4-1-1s.4-1,1-1,1,.4,1,1c0,.5-.4,1-1,1Z"/>
            </g>
            <g class="cls-3">
                <path d="M42,16.1v20h-20v-20h20M44,14.1h-24v24h24V14.1h0Z"/>
                <path class="cls-2" d="M29.2,21.7v-1.9c0-.7.6-1.3,1.3-1.3h3c.7,0,1.3.6,1.3,1.3v1.9"/>
                <path d="M36.8,23.4l1.7,8.2h-13.1l1.7-8.2h9.7M38.5,21.4h-12.9l-2.5,12.2h18l-2.5-12.2h0Z"/>
                <path d="M34.7,24.4c-.5,0-1,.4-1,1s.4,1,1,1,1-.4,1-1c0-.5-.4-1-1-1h0ZM29.3,24.4c-.5,0-1,.4-1,1s.4,1,1,1,1-.4,1-1-.4-1-1-1h0Z"/>
                <path d="M47,9.6v43.1h-30V9.6h30M49,7.6H15v47.1h34V7.6h0Z"/>
                <path d="M32,3.3c-.8,0-1.5.7-1.5,1.5s.7,1.5,1.5,1.5,1.5-.7,1.5-1.5-.7-1.5-1.5-1.5h0Z"/>
                <path d="M35.4,56.6h-6.8c-.9,0-1.7.8-1.7,1.7s.8,1.7,1.7,1.7h6.8c.9,0,1.7-.8,1.7-1.7,0-.9-.8-1.7-1.7-1.7h0Z"/>
                <path d="M44.4,2c3.3,0,6,2.7,6,6v48c0,3.3-2.7,6-6,6h-24.8c-3.3,0-6-2.7-6-6V8c0-3.3,2.7-6,6-6h24.8M44.4,0h-24.8C15.2,0,11.6,3.6,11.6,8v48c0,4.4,3.6,8,8,8h24.8c4.4,0,8-3.6,8-8V8C52.4,3.6,48.8,0,44.4,0h0Z"/>
                <line class="cls-2" x1="19.9" y1="44.3" x2="44.1" y2="44.3"/>
                <line class="cls-2" x1="22.8" y1="47.6" x2="41.2" y2="47.6"/>
            </g>
            <g class="cls-3">
                <path d="M42,16.1v20h-20v-20h20M44,14.1h-24v24h24V14.1h0Z"/>
                <path class="cls-2" d="M29.2,21.7v-1.9c0-.7.6-1.3,1.3-1.3h3c.7,0,1.3.6,1.3,1.3v1.9"/>
                <path d="M36.8,23.4l1.7,8.2h-13.1l1.7-8.2h9.7M38.5,21.4h-12.9l-2.5,12.2h18l-2.5-12.2h0Z"/>
                <path d="M34.7,24.4c-.5,0-1,.4-1,1s.4,1,1,1,1-.4,1-1c0-.5-.4-1-1-1h0ZM29.3,24.4c-.5,0-1,.4-1,1s.4,1,1,1,1-.4,1-1-.4-1-1-1h0Z"/>
                <path d="M47,9.6v43.1h-30V9.6h30M49,7.6H15v47.1h34V7.6h0Z"/>
                <path d="M32,3.3c-.8,0-1.5.7-1.5,1.5s.7,1.5,1.5,1.5,1.5-.7,1.5-1.5-.7-1.5-1.5-1.5h0Z"/>
                <path d="M35.4,56.6h-6.8c-.9,0-1.7.8-1.7,1.7s.8,1.7,1.7,1.7h6.8c.9,0,1.7-.8,1.7-1.7,0-.9-.8-1.7-1.7-1.7h0Z"/>
                <path d="M44.4,2c3.3,0,6,2.7,6,6v48c0,3.3-2.7,6-6,6h-24.8c-3.3,0-6-2.7-6-6V8c0-3.3,2.7-6,6-6h24.8M44.4,0h-24.8C15.2,0,11.6,3.6,11.6,8v48c0,4.4,3.6,8,8,8h24.8c4.4,0,8-3.6,8-8V8C52.4,3.6,48.8,0,44.4,0h0Z"/>
                <line class="cls-2" x1="19.9" y1="44.3" x2="44.1" y2="44.3"/>
                <line class="cls-2" x1="22.8" y1="47.6" x2="41.2" y2="47.6"/>
            </g>
            <g class="cls-3">
                <path d="M32,0C14.3,0,0,14.3,0,32s14.3,32,32,32,32-14.3,32-32S49.7,0,32,0h0Z"/>
                <g>
                <path d="M19.6,63c-3.9,0-7-3.1-7-7V8c0-3.9,3.1-7,7-7h24.8c3.9,0,7,3.1,7,7v48c0,3.9-3.1,7-7,7h-24.8Z"/>
                <path d="M44.4,2c3.3,0,6,2.7,6,6v48c0,3.3-2.7,6-6,6h-24.8c-3.3,0-6-2.7-6-6V8c0-3.3,2.7-6,6-6h24.8M44.4,0h-24.8C15.2,0,11.6,3.6,11.6,8v48c0,4.4,3.6,8,8,8h24.8c4.4,0,8-3.6,8-8V8C52.4,3.6,48.8,0,44.4,0h0Z"/>
                </g>
                <g>
                <rect x="16" y="8.6" width="32" height="45.1"/>
                <path d="M47,9.6v43.1h-30V9.6h30M49,7.6H15v47.1h34V7.6h0Z"/>
                </g>
                <path d="M32,3.3c-.8,0-1.5.7-1.5,1.5s.7,1.5,1.5,1.5,1.5-.7,1.5-1.5-.7-1.5-1.5-1.5h0Z"/>
                <path d="M35.4,56.6h-6.8c-.9,0-1.7.8-1.7,1.7s.8,1.7,1.7,1.7h6.8c.9,0,1.7-.8,1.7-1.7s-.8-1.7-1.7-1.7h0Z"/>
                <line class="cls-2" x1="19.9" y1="44.3" x2="44.1" y2="44.3"/>
                <line class="cls-2" x1="22.8" y1="47.6" x2="41.2" y2="47.6"/>
                <g>
                <rect x="21" y="15.1" width="22" height="22"/>
                <path d="M42,16.1v20h-20v-20h20M44,14.1h-24v24h24V14.1h0Z"/>
                </g>
                <path class="cls-2" d="M29.2,21.7v-1.9c0-.7.6-1.3,1.3-1.3h3c.7,0,1.3.6,1.3,1.3v1.9"/>
                <path d="M36.8,23.4l1.7,8.2h-13.1l1.7-8.2h9.7M38.5,21.4h-12.9l-2.5,12.2h18l-2.5-12.2h0Z"/>
                <path d="M34.7,24.4c-.5,0-1,.4-1,1s.4,1,1,1,1-.4,1-1c0-.5-.4-1-1-1h0ZM29.3,24.4c-.5,0-1,.4-1,1s.4,1,1,1,1-.4,1-1-.4-1-1-1h0Z"/>
            </g>
            <g class="cls-3">
                <rect x="18.9" y="43.8" width="26.2" height="1"/>
                <rect x="21.8" y="47.1" width="20.4" height="1"/>
                <path d="M35.2,19.5c0-.3-.3-.6-.6-.6h-5.3c-.3,0-.6.3-.6.6v1.9h6.4v-1.9Z"/>
                <path d="M44,14.1h-24v24h24V14.1ZM23,33.6l2.5-12.2h2.1v-1.9c0-.9.8-1.7,1.7-1.7h5.3c.9,0,1.7.8,1.7,1.7v1.9h2.1l2.5,12.2h-18Z"/>
                <circle cx="34.7" cy="24.7" r="1"/>
                <circle cx="29.3" cy="24.7" r="1"/>
                <path d="M19.6,64h24.8c4.4,0,8-3.6,8-8V8C52.4,3.6,48.8,0,44.4,0h-24.8C15.2,0,11.6,3.6,11.6,8v48c0,4.4,3.6,8,8,8ZM35.4,61h-6.8c-.9,0-1.7-.8-1.7-1.7s.8-1.7,1.7-1.7h6.8c.9,0,1.7.8,1.7,1.7,0,.9-.8,1.7-1.7,1.7ZM32,2.3c.8,0,1.5.7,1.5,1.5s-.7,1.5-1.5,1.5-1.5-.7-1.5-1.5.7-1.5,1.5-1.5ZM14.5,7.6h35v47.1H14.5V7.6Z"/>
            </g>
            <g class="cls-3">
                <path d="M44.4,64h-24.8c-4.4,0-8-3.6-8-8V8C11.6,3.6,15.2,0,19.6,0h24.8C48.8,0,52.4,3.6,52.4,8v48c0,4.4-3.6,8-8,8Z"/>
                <rect x="14.8" y="7.6" width="35" height="47.1"/>
                <circle cx="32" cy="3.8" r="1.5"/>
                <path d="M35.4,61h-6.8c-.9,0-1.7-.8-1.7-1.7s.8-1.7,1.7-1.7h6.8c.9,0,1.7.8,1.7,1.7,0,.9-.8,1.7-1.7,1.7Z"/>
                <line class="cls-1" x1="18.9" y1="44.3" x2="45.1" y2="44.3"/>
                <line class="cls-1" x1="21.8" y1="47.6" x2="42.2" y2="47.6"/>
                <rect x="20" y="14.1" width="24" height="24"/>
                <polygon points="29.3 33.1 23.5 27 25.3 25.4 29.3 29.5 39 18.9 40.8 20.5 29.3 33.1"/>
            </g>
            <g class="cls-3">
                <path d="M42,16.1v20h-20v-20h20M44,14.1h-24v24h24V14.1h0Z"/>
                <polygon points="39 18.9 29.3 29.5 25.3 25.4 23.5 27 29.3 33.1 40.8 20.5 39 18.9"/>
                <g>
                <path d="M47,9.6v43.1h-30V9.6h30M49,7.6H15v47.1h34V7.6h0Z"/>
                <path d="M32,3.3c-.8,0-1.5.7-1.5,1.5s.7,1.5,1.5,1.5,1.5-.7,1.5-1.5-.7-1.5-1.5-1.5h0Z"/>
                <path d="M35.4,56.6h-6.8c-.9,0-1.7.8-1.7,1.7s.8,1.7,1.7,1.7h6.8c.9,0,1.7-.8,1.7-1.7s-.8-1.7-1.7-1.7h0Z"/>
                <path d="M44.4,2c3.3,0,6,2.7,6,6v48c0,3.3-2.7,6-6,6h-24.8c-3.3,0-6-2.7-6-6V8c0-3.3,2.7-6,6-6h24.8M44.4,0h-24.8C15.2,0,11.6,3.6,11.6,8v48c0,4.4,3.6,8,8,8h24.8c4.4,0,8-3.6,8-8V8C52.4,3.6,48.8,0,44.4,0h0Z"/>
                <line class="cls-2" x1="19.9" y1="44.3" x2="44.1" y2="44.3"/>
                <line class="cls-2" x1="22.8" y1="47.6" x2="41.2" y2="47.6"/>
                </g>
            </g>
            <g class="cls-3">
                <path d="M42,16.1v20h-20v-20h20M44,14.1h-24v24h24V14.1h0Z"/>
                <polygon points="39 18.9 29.3 29.5 25.3 25.4 23.5 27 29.3 33.1 40.8 20.5 39 18.9"/>
                <g>
                <path d="M47,9.6v43.1h-30V9.6h30M49,7.6H15v47.1h34V7.6h0Z"/>
                <path d="M32,3.3c-.8,0-1.5.7-1.5,1.5s.7,1.5,1.5,1.5,1.5-.7,1.5-1.5-.7-1.5-1.5-1.5h0Z"/>
                <path d="M35.4,56.6h-6.8c-.9,0-1.7.8-1.7,1.7s.8,1.7,1.7,1.7h6.8c.9,0,1.7-.8,1.7-1.7s-.8-1.7-1.7-1.7h0Z"/>
                <path d="M44.4,2c3.3,0,6,2.7,6,6v48c0,3.3-2.7,6-6,6h-24.8c-3.3,0-6-2.7-6-6V8c0-3.3,2.7-6,6-6h24.8M44.4,0h-24.8C15.2,0,11.6,3.6,11.6,8v48c0,4.4,3.6,8,8,8h24.8c4.4,0,8-3.6,8-8V8C52.4,3.6,48.8,0,44.4,0h0Z"/>
                <line class="cls-2" x1="19.9" y1="44.3" x2="44.1" y2="44.3"/>
                <line class="cls-2" x1="22.8" y1="47.6" x2="41.2" y2="47.6"/>
                </g>
            </g>
            <g class="cls-3">
                <path d="M32,0C14.3,0,0,14.3,0,32s14.3,32,32,32,32-14.3,32-32S49.7,0,32,0h0Z"/>
                <g>
                <path d="M19.6,63c-3.9,0-7-3.1-7-7V8c0-3.9,3.1-7,7-7h24.8c3.9,0,7,3.1,7,7v48c0,3.9-3.1,7-7,7h-24.8Z"/>
                <path d="M44.4,2c3.3,0,6,2.7,6,6v48c0,3.3-2.7,6-6,6h-24.8c-3.3,0-6-2.7-6-6V8c0-3.3,2.7-6,6-6h24.8M44.4,0h-24.8C15.2,0,11.6,3.6,11.6,8v48c0,4.4,3.6,8,8,8h24.8c4.4,0,8-3.6,8-8V8C52.4,3.6,48.8,0,44.4,0h0Z"/>
                </g>
                <g>
                <rect x="16" y="8.6" width="32" height="45.1"/>
                <path d="M47,9.6v43.1h-30V9.6h30M49,7.6H15v47.1h34V7.6h0Z"/>
                </g>
                <path d="M32,3.3c-.8,0-1.5.7-1.5,1.5s.7,1.5,1.5,1.5,1.5-.7,1.5-1.5-.7-1.5-1.5-1.5h0Z"/>
                <path d="M35.4,56.6h-6.8c-.9,0-1.7.8-1.7,1.7s.8,1.7,1.7,1.7h6.8c.9,0,1.7-.8,1.7-1.7s-.8-1.7-1.7-1.7h0Z"/>
                <line class="cls-2" x1="19.9" y1="44.3" x2="44.1" y2="44.3"/>
                <line class="cls-2" x1="22.8" y1="47.6" x2="41.2" y2="47.6"/>
                <rect x="20" y="14.1" width="24" height="24"/>
                <polygon points="29.3 33.1 23.5 27 25.3 25.4 29.3 29.5 39 18.9 40.8 20.5 29.3 33.1"/>
            </g>
            <g class="cls-3">
                <g>
                <rect x="18.9" y="43.8" width="26.2" height="1"/>
                <rect x="21.8" y="47.1" width="20.4" height="1"/>
                <path d="M44,14.1h-24v24h24V14.1ZM29.3,33.1l-5.8-6,1.7-1.7,4,4.2,9.8-10.7,1.8,1.6-11.5,12.6Z"/>
                <path d="M19.6,64h24.8c4.4,0,8-3.6,8-8V8C52.4,3.6,48.8,0,44.4,0h-24.8C15.2,0,11.6,3.6,11.6,8v48c0,4.4,3.6,8,8,8ZM35.4,61h-6.8c-.9,0-1.7-.8-1.7-1.7s.8-1.7,1.7-1.7h6.8c.9,0,1.7.8,1.7,1.7,0,.9-.8,1.7-1.7,1.7ZM32,2.3c.8,0,1.5.7,1.5,1.5s-.7,1.5-1.5,1.5-1.5-.7-1.5-1.5.7-1.5,1.5-1.5ZM14.5,7.6h35v47.1H14.5V7.6Z"/>
                </g>
            </g>
            </g>
        </g>
    </symbol>
    <symbol id="icon-shirt2" viewBox="0 0 64 80">
        <defs>
            <style>
            .cls-1, .cls-2 {
                fill: none;
            }

            .cls-3, .cls-2 {
                stroke: #000;
                stroke-miterlimit: 10;
                stroke-width: 2px;
            }

            .cls-4 {
                display: none;
            }
            </style>
        </defs>
        <!-- Generator: Adobe Illustrator 28.7.1, SVG Export Plug-In . SVG Version: 1.2.0 Build 142)  -->
        <g>
            <g id="Layer_1">
            <g class="cls-4">
                <rect x="64" y="-188" width="20" height="430"/>
                <rect x="-127" y="64" width="1023" height="20"/>
                <rect x="-144.9" y="-214.7" width="1058.4" height="519.8"/>
            </g>
            <g class="cls-4">
                <polygon points="13 24.8 11.7 23.3 32.4 5.2 52.3 23.3 51 24.8 32.3 7.8 13 24.8"/>
                <circle cx="32.3" cy="8.1" r="4.7"/>
                <rect y="22.2" width="64" height="38.5"/>
                <g>
                <path d="M10.8,46.2c1,.5,2.5,1,4.1,1s2.6-.7,2.6-1.8-.8-1.6-2.7-2.3c-2.7-.9-4.5-2.5-4.5-4.8s2.3-4.9,6.2-4.9,3.2.4,4.2.8l-.8,3c-.7-.3-1.8-.8-3.4-.8s-2.4.7-2.4,1.6.9,1.5,3,2.3c2.9,1.1,4.3,2.6,4.3,4.9s-2.1,5.1-6.6,5.1-3.7-.5-4.6-1l.8-3.1Z"/>
                <path d="M30.6,50l-.2-1.2h0c-.8.9-2,1.5-3.4,1.5-2.4,0-3.8-1.8-3.8-3.6,0-3.1,2.8-4.6,7-4.5v-.2c0-.6-.3-1.5-2.2-1.5s-2.5.4-3.3.9l-.7-2.4c.8-.5,2.5-1,4.6-1,4,0,5.2,2.3,5.2,5.1v4.1c0,1.1,0,2.2.2,2.9h-3.3ZM30.2,44.4c-1.9,0-3.5.4-3.5,1.9s.6,1.4,1.5,1.4,1.7-.6,1.9-1.4c0-.2,0-.4,0-.6v-1.3h0Z"/>
                <path d="M36.7,32.7h3.7v17.3h-3.7v-17.3Z"/>
                <path d="M46.2,45.2c.1,1.5,1.6,2.3,3.4,2.3s2.3-.2,3.3-.5l.5,2.5c-1.2.5-2.7.7-4.3.7-4,0-6.3-2.3-6.3-6.1s1.9-6.3,6-6.3,5.3,3,5.3,5.9,0,1.2-.1,1.5h-7.7ZM50.6,42.7c0-.9-.4-2.4-2.1-2.4s-2.2,1.4-2.3,2.4h4.4Z"/>
                </g>
            </g>
            <g class="cls-4">
                <g>
                <path class="cls-1" d="M29.8,8.8c0,0,0,.1,0,.2,0,.1,0,.2.1.3,0,0,0,0,0,0,0,.1.1.2.2.3.5.6,1.3,1.1,2.1,1.1s1.6-.4,2.1-1c0-.1.2-.2.2-.4,0,0,0,0,0,0,0-.1.1-.2.2-.3,0,0,0-.1,0-.2,0,0,0-.2,0-.3,0-.2,0-.3,0-.5,0-1.5-1.2-2.7-2.7-2.7s-2.3.9-2.6,2.1c0,.2,0,.4,0,.6s0,.3,0,.5c0,0,0,.2,0,.2Z"/>
                <path class="cls-1" d="M32.3,12.7c-1.5,0-2.8-.7-3.6-1.7l-12.7,11.1h32.1l-12.2-11.1c-.9,1-2.1,1.7-3.6,1.7Z"/>
                <path d="M51,22.2l-14.2-12.9c.1-.4.2-.8.2-1.2,0-2.6-2.1-4.7-4.7-4.7s-4.7,2.1-4.7,4.7,0,.7.1,1.1l-14.8,13H0v38.5h64V22.2h-13ZM29.7,7.5c.3-1.2,1.3-2.1,2.6-2.1s2.7,1.2,2.7,2.7,0,.3,0,.5c0,0,0,.2,0,.3,0,0,0,.1,0,.2,0,.1,0,.2-.2.3,0,0,0,0,0,0,0,.1-.2.2-.2.4-.5.6-1.2,1-2.1,1s-1.6-.4-2.1-1.1c0-.1-.1-.2-.2-.3,0,0,0,0,0,0,0,0,0-.2-.1-.3,0,0,0-.1,0-.2,0,0,0-.2,0-.2,0-.2,0-.3,0-.5s0-.4,0-.6ZM28.7,11c.9,1.1,2.2,1.7,3.6,1.7s2.7-.7,3.6-1.7l12.2,11.1H16l12.7-11.1ZM62,58.6H2V24.2h60v34.5Z"/>
                </g>
                <path d="M10.8,46.2c1,.5,2.5,1,4.1,1s2.6-.7,2.6-1.8-.8-1.6-2.7-2.3c-2.7-.9-4.5-2.5-4.5-4.8s2.3-4.9,6.2-4.9,3.2.4,4.2.8l-.8,3c-.7-.3-1.8-.8-3.4-.8s-2.4.7-2.4,1.6.9,1.5,3,2.3c2.9,1.1,4.3,2.6,4.3,4.9s-2.1,5.1-6.6,5.1-3.7-.5-4.6-1l.8-3.1Z"/>
                <path d="M30.6,50l-.2-1.2h0c-.8.9-2,1.5-3.4,1.5-2.4,0-3.8-1.8-3.8-3.6,0-3.1,2.8-4.6,7-4.5v-.2c0-.6-.3-1.5-2.2-1.5s-2.5.4-3.3.9l-.7-2.4c.8-.5,2.5-1,4.6-1,4,0,5.2,2.3,5.2,5.1v4.1c0,1.1,0,2.2.2,2.9h-3.3ZM30.2,44.4c-1.9,0-3.5.4-3.5,1.9s.6,1.4,1.5,1.4,1.7-.6,1.9-1.4c0-.2,0-.4,0-.6v-1.3h0Z"/>
                <path d="M36.7,32.7h3.7v17.3h-3.7v-17.3Z"/>
                <path d="M46.2,45.2c.1,1.5,1.6,2.3,3.4,2.3s2.3-.2,3.3-.5l.5,2.5c-1.2.5-2.7.7-4.3.7-4,0-6.3-2.3-6.3-6.1s1.9-6.3,6-6.3,5.3,3,5.3,5.9,0,1.2-.1,1.5h-7.7ZM50.6,42.7c0-.9-.4-2.4-2.1-2.4s-2.2,1.4-2.3,2.4h4.4Z"/>
            </g>
            <g class="cls-4">
                <line class="cls-2" x1="23.1" y1="32.2" x2="40.9" y2="32.2"/>
                <path d="M49.4,4.1l12.1,6.2-4.3,12-6.1-2.7-2.8-1.2v41.5H15.6V18.4l-2.8,1.2-6.1,2.7L2.5,10.3l12.1-6.2h7.7c1.2,8,9.5,8.6,9.6,8.6h.1s.1,0,.1,0c0,0,8.4-.6,9.6-8.6h7.7M49.9,2.1h-10c0,8.1-7.9,8.6-7.9,8.6,0,0-7.9-.5-7.9-8.6h-10L0,9.3l5.6,15.6,8.1-3.5v40.5h36.8V21.5l8.1,3.5,5.6-15.7-14.1-7.2h0Z"/>
            </g>
            <g>
                <rect x="23.1" y="31.7" width="17.7" height="1"/>
                <path d="M39.9,2.1c0,8.1-7.9,8.6-7.9,8.6,0,0-7.9-.5-7.9-8.6h-10L0,9.3l5.6,15.6,8.1-3.5v40.5h36.8V21.5l8.1,3.5,5.6-15.7-14.1-7.2h-10ZM57.9,23.6l-7.1-3.1-1.4-.6v41H14.6V19.9l-1.4.6-7.1,3.1L1.2,9.8,14.4,3.1h8.8c.5,6.4,5.9,8.4,8.8,8.6h0s0,0,0,0c2.9-.2,8.3-2.2,8.8-8.6h8.8l13.1,6.7-4.9,13.8Z"/>
            </g>
            <g class="cls-4">
                <g>
                <path d="M32,0C14.3,0,0,14.3,0,32s14.3,32,32,32,32-14.3,32-32S49.7,0,32,0h0Z"/>
                <circle cx="32.3" cy="8" r="3.7"/>
                <rect x="1.3" y="23.4" width="61.3" height="36"/>
                <path class="cls-1" d="M29.8,8.8c0,0,0,.1,0,.2,0,.1,0,.2.1.3,0,0,0,0,0,0,0,.1.1.2.2.3.5.6,1.3,1.1,2.1,1.1s1.6-.4,2.1-1c0-.1.2-.2.2-.4,0,0,0,0,0,0,0-.1.1-.2.2-.3,0,0,0-.1,0-.2,0,0,0-.2,0-.3,0-.2,0-.3,0-.5,0-1.5-1.2-2.7-2.7-2.7s-2.3.9-2.6,2.1c0,.2,0,.4,0,.6s0,.3,0,.5c0,0,0,.2,0,.2Z"/>
                <path class="cls-1" d="M32.3,12.7c-1.5,0-2.8-.7-3.6-1.7l-12.7,11.1h32.1l-12.2-11.1c-.9,1-2.1,1.7-3.6,1.7Z"/>
                <path d="M51,22.2l-14.2-12.9c.1-.4.2-.8.2-1.2,0-2.6-2.1-4.7-4.7-4.7s-4.7,2.1-4.7,4.7,0,.7.1,1.1l-14.8,13H0v38.5h64V22.2h-13ZM29.7,7.5c.3-1.2,1.3-2.1,2.6-2.1s2.7,1.2,2.7,2.7,0,.3,0,.5c0,0,0,.2,0,.3,0,0,0,.1,0,.2,0,.1,0,.2-.2.3,0,0,0,0,0,0,0,.1-.2.2-.2.4-.5.6-1.2,1-2.1,1s-1.6-.4-2.1-1.1c0-.1-.1-.2-.2-.3,0,0,0,0,0,0,0,0,0-.2-.1-.3,0,0,0-.1,0-.2,0,0,0-.2,0-.2,0-.2,0-.3,0-.5s0-.4,0-.6ZM28.7,11c.9,1.1,2.2,1.7,3.6,1.7s2.7-.7,3.6-1.7l12.2,11.1H16l12.7-11.1ZM62,58.6H2V24.2h60v34.5Z"/>
                </g>
                <path d="M10.8,46.2c1,.5,2.5,1,4.1,1s2.6-.7,2.6-1.8-.8-1.6-2.7-2.3c-2.7-.9-4.5-2.5-4.5-4.8s2.3-4.9,6.2-4.9,3.2.4,4.2.8l-.8,3c-.7-.3-1.8-.8-3.4-.8s-2.4.7-2.4,1.6.9,1.5,3,2.3c2.9,1.1,4.3,2.6,4.3,4.9s-2.1,5.1-6.6,5.1-3.7-.5-4.6-1l.8-3.1Z"/>
                <path d="M30.6,50l-.2-1.2h0c-.8.9-2,1.5-3.4,1.5-2.4,0-3.8-1.8-3.8-3.6,0-3.1,2.8-4.6,7-4.5v-.2c0-.6-.3-1.5-2.2-1.5s-2.5.4-3.3.9l-.7-2.4c.8-.5,2.5-1,4.6-1,4,0,5.2,2.3,5.2,5.1v4.1c0,1.1,0,2.2.2,2.9h-3.3ZM30.2,44.4c-1.9,0-3.5.4-3.5,1.9s.6,1.4,1.5,1.4,1.7-.6,1.9-1.4c0-.2,0-.4,0-.6v-1.3h0Z"/>
                <path d="M36.7,32.7h3.7v17.3h-3.7v-17.3Z"/>
                <path d="M46.2,45.2c.1,1.5,1.6,2.3,3.4,2.3s2.3-.2,3.3-.5l.5,2.5c-1.2.5-2.7.7-4.3.7-4,0-6.3-2.3-6.3-6.1s1.9-6.3,6-6.3,5.3,3,5.3,5.9,0,1.2-.1,1.5h-7.7ZM50.6,42.7c0-.9-.4-2.4-2.1-2.4s-2.2,1.4-2.3,2.4h4.4Z"/>
            </g>
            <g class="cls-4">
                <g>
                <g>
                    <path d="M32,0C14.3,0,0,14.3,0,32s14.3,32,32,32,32-14.3,32-32S49.7,0,32,0h0Z"/>
                    <circle cx="32.3" cy="8" r="3.7"/>
                    <rect x="1.3" y="23.4" width="61.3" height="36"/>
                    <path class="cls-1" d="M29.8,8.8c0,0,0,.1,0,.2,0,.1,0,.2.1.3,0,0,0,0,0,0,0,.1.1.2.2.3.5.6,1.3,1.1,2.1,1.1s1.6-.4,2.1-1c0-.1.2-.2.2-.4,0,0,0,0,0,0,0-.1.1-.2.2-.3,0,0,0-.1,0-.2,0,0,0-.2,0-.3,0-.2,0-.3,0-.5,0-1.5-1.2-2.7-2.7-2.7s-2.3.9-2.6,2.1c0,.2,0,.4,0,.6s0,.3,0,.5c0,0,0,.2,0,.2Z"/>
                    <path class="cls-1" d="M32.3,12.7c-1.5,0-2.8-.7-3.6-1.7l-12.7,11.1h32.1l-12.2-11.1c-.9,1-2.1,1.7-3.6,1.7Z"/>
                    <path d="M51,22.2l-14.2-12.9c.1-.4.2-.8.2-1.2,0-2.6-2.1-4.7-4.7-4.7s-4.7,2.1-4.7,4.7,0,.7.1,1.1l-14.8,13H0v38.5h64V22.2h-13ZM29.7,7.5c.3-1.2,1.3-2.1,2.6-2.1s2.7,1.2,2.7,2.7,0,.3,0,.5c0,0,0,.2,0,.3,0,0,0,.1,0,.2,0,.1,0,.2-.2.3,0,0,0,0,0,0,0,.1-.2.2-.2.4-.5.6-1.2,1-2.1,1s-1.6-.4-2.1-1.1c0-.1-.1-.2-.2-.3,0,0,0,0,0,0,0,0,0-.2-.1-.3,0,0,0-.1,0-.2,0,0,0-.2,0-.2,0-.2,0-.3,0-.5s0-.4,0-.6ZM28.7,11c.9,1.1,2.2,1.7,3.6,1.7s2.7-.7,3.6-1.7l12.2,11.1H16l12.7-11.1ZM62,58.6H2V24.2h60v34.5Z"/>
                </g>
                <path d="M10.8,46.2c1,.5,2.5,1,4.1,1s2.6-.7,2.6-1.8-.8-1.6-2.7-2.3c-2.7-.9-4.5-2.5-4.5-4.8s2.3-4.9,6.2-4.9,3.2.4,4.2.8l-.8,3c-.7-.3-1.8-.8-3.4-.8s-2.4.7-2.4,1.6.9,1.5,3,2.3c2.9,1.1,4.3,2.6,4.3,4.9s-2.1,5.1-6.6,5.1-3.7-.5-4.6-1l.8-3.1Z"/>
                <path d="M30.6,50l-.2-1.2h0c-.8.9-2,1.5-3.4,1.5-2.4,0-3.8-1.8-3.8-3.6,0-3.1,2.8-4.6,7-4.5v-.2c0-.6-.3-1.5-2.2-1.5s-2.5.4-3.3.9l-.7-2.4c.8-.5,2.5-1,4.6-1,4,0,5.2,2.3,5.2,5.1v4.1c0,1.1,0,2.2.2,2.9h-3.3ZM30.2,44.4c-1.9,0-3.5.4-3.5,1.9s.6,1.4,1.5,1.4,1.7-.6,1.9-1.4c0-.2,0-.4,0-.6v-1.3h0Z"/>
                <path d="M36.7,32.7h3.7v17.3h-3.7v-17.3Z"/>
                <path d="M46.2,45.2c.1,1.5,1.6,2.3,3.4,2.3s2.3-.2,3.3-.5l.5,2.5c-1.2.5-2.7.7-4.3.7-4,0-6.3-2.3-6.3-6.1s1.9-6.3,6-6.3,5.3,3,5.3,5.9,0,1.2-.1,1.5h-7.7ZM50.6,42.7c0-.9-.4-2.4-2.1-2.4s-2.2,1.4-2.3,2.4h4.4Z"/>
                </g>
            </g>
            <g class="cls-4">
                <g>
                <path d="M36.9,9.3c.1-.4.2-.8.2-1.2,0-2.6-2.1-4.7-4.7-4.7s-4.7,2.1-4.7,4.7,0,.7.1,1.1l-14.8,13H0v38.5h64V22.2h-13l-14.2-12.9ZM28.7,11c.9,1.1,2.2,1.7,3.6,1.7s2.7-.7,3.6-1.7l12.2,11.1H16l12.7-11.1ZM14.6,50.2c-1.9,0-3.7-.5-4.6-1l.8-3.1c1,.5,2.5,1,4.1,1s2.6-.7,2.6-1.8-.8-1.6-2.7-2.3c-2.7-.9-4.5-2.5-4.5-4.8s2.3-4.9,6.2-4.9,3.2.4,4.2.8l-.8,3c-.7-.3-1.8-.8-3.4-.8s-2.4.7-2.4,1.6.9,1.5,3,2.3c2.9,1.1,4.3,2.6,4.3,4.9,0,2.7-2.1,5.1-6.6,5.1ZM30.6,50l-.2-1.2h0c-.8.9-2,1.5-3.4,1.5-2.4,0-3.8-1.8-3.8-3.6,0-3.1,2.8-4.6,7-4.5v-.2c0-.6-.3-1.5-2.2-1.5s-2.5.4-3.3.9l-.7-2.4c.8-.5,2.5-1,4.6-1,4,0,5.2,2.3,5.2,5.1v4.1c0,1.1,0,2.2.2,2.9h-3.3ZM40.4,50h-3.7v-17.3h3.7v17.3ZM54,43.8c0,.6,0,1.2-.1,1.5h-7.7c.1,1.5,1.6,2.3,3.4,2.3s2.3-.2,3.3-.5l.5,2.5c-1.2.5-2.7.7-4.3.7-4,0-6.3-2.3-6.3-6.1s1.9-6.3,6-6.3c3.8,0,5.3,3,5.3,5.9Z"/>
                <path d="M26.7,46.2c0,.9.6,1.4,1.5,1.4s1.7-.6,1.9-1.4c0-.2,0-.4,0-.6v-1.3c-1.9,0-3.5.4-3.5,1.9Z"/>
                <path d="M46.2,42.7h4.4c0-.9-.4-2.4-2.1-2.4-1.6,0-2.2,1.4-2.3,2.4Z"/>
                </g>
            </g>
            <g class="cls-4">
                <polygon points="13 24.8 11.7 23.3 32.4 5.2 52.3 23.3 51 24.8 32.3 7.8 13 24.8"/>
                <circle cx="32.3" cy="8.1" r="4.7"/>
                <rect y="22.2" width="64" height="38.5"/>
                <g>
                <path d="M31.1,47.3v-5.5c-1.7-.5-3-1.2-3.8-2.2-.8-1-1.2-2.2-1.2-3.6s.5-2.6,1.4-3.6c.9-1,2.1-1.5,3.6-1.7v-1.3h1.9v1.3c1.4.2,2.5.6,3.3,1.4.8.8,1.4,1.8,1.6,3.2l-3.3.4c-.2-1-.7-1.7-1.6-2.1v5.1c2.1.6,3.5,1.3,4.3,2.2.8.9,1.1,2.1,1.1,3.5s-.5,2.9-1.4,4c-1,1.1-2.3,1.8-4,2v2.5h-1.9v-2.4c-1.5-.2-2.8-.8-3.7-1.7-.9-.9-1.6-2.3-1.8-4l3.4-.4c.1.7.4,1.3.8,1.8.4.5.8.9,1.3,1.1ZM31.1,33.5c-.5.2-.9.5-1.2.9-.3.4-.5.9-.5,1.4s.1.9.4,1.3c.3.4.7.7,1.3,1v-4.6h0ZM33,47.5c.7-.1,1.2-.4,1.6-.9.4-.5.6-1.1.6-1.7s-.2-1.1-.5-1.5c-.3-.4-.9-.8-1.7-1v5.1Z"/>
                <g>
                    <path d="M46.7,45.2v-3.7c-1.1-.3-2-.8-2.5-1.5-.5-.7-.8-1.5-.8-2.4s.3-1.8.9-2.4c.6-.6,1.4-1,2.4-1.1v-.9h1.3v.9c.9.1,1.7.4,2.2.9.5.5.9,1.2,1,2.1l-2.2.3c-.1-.7-.5-1.2-1-1.4v3.4c1.4.4,2.3.9,2.9,1.5s.8,1.4.8,2.3-.3,1.9-1,2.7c-.6.7-1.5,1.2-2.7,1.3v1.6h-1.3v-1.6c-1-.1-1.8-.5-2.5-1.1s-1-1.5-1.2-2.7l2.3-.2c0,.5.3.9.5,1.2.3.3.5.6.9.7ZM46.7,36c-.3.1-.6.3-.8.6-.2.3-.3.6-.3.9s0,.6.3.9.5.5.8.6v-3ZM48,45.3c.4,0,.8-.3,1.1-.6.3-.3.4-.7.4-1.1s-.1-.7-.3-1c-.2-.3-.6-.5-1.1-.7v3.4h0Z"/>
                    <path d="M16.1,45.2v-3.7c-1.1-.3-2-.8-2.5-1.5-.5-.7-.8-1.5-.8-2.4s.3-1.8.9-2.4c.6-.6,1.4-1,2.4-1.1v-.9h1.3v.9c.9.1,1.7.4,2.2.9.5.5.9,1.2,1,2.1l-2.2.3c-.1-.7-.5-1.2-1-1.4v3.4c1.4.4,2.3.9,2.9,1.5s.8,1.4.8,2.3-.3,1.9-1,2.7c-.6.7-1.5,1.2-2.7,1.3v1.6h-1.3v-1.6c-1-.1-1.8-.5-2.5-1.1-.6-.6-1-1.5-1.2-2.7l2.3-.2c0,.5.3.9.5,1.2.3.3.5.6.9.7ZM16.1,36c-.3.1-.6.3-.8.6-.2.3-.3.6-.3.9s0,.6.3.9.5.5.8.6v-3ZM17.3,45.3c.4,0,.8-.3,1.1-.6.3-.3.4-.7.4-1.1s-.1-.7-.3-1c-.2-.3-.6-.5-1.1-.7v3.4h0Z"/>
                </g>
                </g>
            </g>
            <g class="cls-4">
                <path d="M31.1,47.3v-5.5c-1.7-.5-3-1.2-3.8-2.2-.8-1-1.2-2.2-1.2-3.6s.5-2.6,1.4-3.6c.9-1,2.1-1.5,3.6-1.7v-1.3h1.9v1.3c1.4.2,2.5.6,3.3,1.4.8.8,1.4,1.8,1.6,3.2l-3.3.4c-.2-1-.7-1.7-1.6-2.1v5.1c2.1.6,3.5,1.3,4.3,2.2.8.9,1.1,2.1,1.1,3.5s-.5,2.9-1.4,4c-1,1.1-2.3,1.8-4,2v2.5h-1.9v-2.4c-1.5-.2-2.8-.8-3.7-1.7-.9-.9-1.6-2.3-1.8-4l3.4-.4c.1.7.4,1.3.8,1.8.4.5.8.9,1.3,1.1ZM31.1,33.5c-.5.2-.9.5-1.2.9-.3.4-.5.9-.5,1.4s.1.9.4,1.3c.3.4.7.7,1.3,1v-4.6h0ZM33,47.5c.7-.1,1.2-.4,1.6-.9.4-.5.6-1.1.6-1.7s-.2-1.1-.5-1.5c-.3-.4-.9-.8-1.7-1v5.1Z"/>
                <path d="M46.7,45.2v-3.7c-1.1-.3-2-.8-2.5-1.5-.5-.7-.8-1.5-.8-2.4s.3-1.8.9-2.4c.6-.6,1.4-1,2.4-1.1v-.9h1.3v.9c.9.1,1.7.4,2.2.9.5.5.9,1.2,1,2.1l-2.2.3c-.1-.7-.5-1.2-1-1.4v3.4c1.4.4,2.3.9,2.9,1.5s.8,1.4.8,2.3-.3,1.9-1,2.7c-.6.7-1.5,1.2-2.7,1.3v1.6h-1.3v-1.6c-1-.1-1.8-.5-2.5-1.1s-1-1.5-1.2-2.7l2.3-.2c0,.5.3.9.5,1.2.3.3.5.6.9.7ZM46.7,36c-.3.1-.6.3-.8.6-.2.3-.3.6-.3.9s0,.6.3.9.5.5.8.6v-3ZM48,45.3c.4,0,.8-.3,1.1-.6.3-.3.4-.7.4-1.1s-.1-.7-.3-1c-.2-.3-.6-.5-1.1-.7v3.4h0Z"/>
                <path d="M16.1,45.2v-3.7c-1.1-.3-2-.8-2.5-1.5-.5-.7-.8-1.5-.8-2.4s.3-1.8.9-2.4c.6-.6,1.4-1,2.4-1.1v-.9h1.3v.9c.9.1,1.7.4,2.2.9.5.5.9,1.2,1,2.1l-2.2.3c-.1-.7-.5-1.2-1-1.4v3.4c1.4.4,2.3.9,2.9,1.5s.8,1.4.8,2.3-.3,1.9-1,2.7c-.6.7-1.5,1.2-2.7,1.3v1.6h-1.3v-1.6c-1-.1-1.8-.5-2.5-1.1-.6-.6-1-1.5-1.2-2.7l2.3-.2c0,.5.3.9.5,1.2.3.3.5.6.9.7ZM16.1,36c-.3.1-.6.3-.8.6-.2.3-.3.6-.3.9s0,.6.3.9.5.5.8.6v-3ZM17.3,45.3c.4,0,.8-.3,1.1-.6.3-.3.4-.7.4-1.1s-.1-.7-.3-1c-.2-.3-.6-.5-1.1-.7v3.4h0Z"/>
                <path class="cls-1" d="M29.8,8.8c0,0,0,.1,0,.2,0,.1,0,.2.1.3,0,0,0,0,0,0,0,.1.1.2.2.3.5.6,1.3,1.1,2.1,1.1s1.6-.4,2.1-1c0-.1.2-.2.2-.4,0,0,0,0,0,0,0-.1.1-.2.2-.3,0,0,0-.1,0-.2,0,0,0-.2,0-.3,0-.2,0-.3,0-.5,0-1.5-1.2-2.7-2.7-2.7s-2.3.9-2.6,2.1c0,.2,0,.4,0,.6s0,.3,0,.5c0,0,0,.2,0,.2Z"/>
                <path class="cls-1" d="M32.3,12.7c-1.5,0-2.8-.7-3.6-1.7l-12.7,11.1h32.1l-12.2-11.1c-.9,1-2.1,1.7-3.6,1.7Z"/>
                <path d="M51,22.2l-14.2-12.9c.1-.4.2-.8.2-1.2,0-2.6-2.1-4.7-4.7-4.7s-4.7,2.1-4.7,4.7,0,.7.1,1.1l-14.8,13H0v38.5h64V22.2h-13ZM29.7,7.5c.3-1.2,1.3-2.1,2.6-2.1s2.7,1.2,2.7,2.7,0,.3,0,.5c0,0,0,.2,0,.3,0,0,0,.1,0,.2,0,.1,0,.2-.2.3,0,0,0,0,0,0,0,.1-.2.2-.2.4-.5.6-1.2,1-2.1,1s-1.6-.4-2.1-1.1c0-.1-.1-.2-.2-.3,0,0,0,0,0,0,0,0,0-.2-.1-.3,0,0,0-.1,0-.2,0,0,0-.2,0-.2,0-.2,0-.3,0-.5s0-.4,0-.6ZM28.7,11c.9,1.1,2.2,1.7,3.6,1.7s2.7-.7,3.6-1.7l12.2,11.1H16l12.7-11.1ZM62,58.6H2V24.2h60v34.5Z"/>
            </g>
            <g class="cls-4">
                <path d="M31.1,47.3v-5.5c-1.7-.5-3-1.2-3.8-2.2-.8-1-1.2-2.2-1.2-3.6s.5-2.6,1.4-3.6c.9-1,2.1-1.5,3.6-1.7v-1.3h1.9v1.3c1.4.2,2.5.6,3.3,1.4.8.8,1.4,1.8,1.6,3.2l-3.3.4c-.2-1-.7-1.7-1.6-2.1v5.1c2.1.6,3.5,1.3,4.3,2.2.8.9,1.1,2.1,1.1,3.5s-.5,2.9-1.4,4c-1,1.1-2.3,1.8-4,2v2.5h-1.9v-2.4c-1.5-.2-2.8-.8-3.7-1.7-.9-.9-1.6-2.3-1.8-4l3.4-.4c.1.7.4,1.3.8,1.8.4.5.8.9,1.3,1.1ZM31.1,33.5c-.5.2-.9.5-1.2.9-.3.4-.5.9-.5,1.4s.1.9.4,1.3c.3.4.7.7,1.3,1v-4.6h0ZM33,47.5c.7-.1,1.2-.4,1.6-.9.4-.5.6-1.1.6-1.7s-.2-1.1-.5-1.5c-.3-.4-.9-.8-1.7-1v5.1Z"/>
                <path d="M46.7,45.2v-3.7c-1.1-.3-2-.8-2.5-1.5-.5-.7-.8-1.5-.8-2.4s.3-1.8.9-2.4c.6-.6,1.4-1,2.4-1.1v-.9h1.3v.9c.9.1,1.7.4,2.2.9.5.5.9,1.2,1,2.1l-2.2.3c-.1-.7-.5-1.2-1-1.4v3.4c1.4.4,2.3.9,2.9,1.5s.8,1.4.8,2.3-.3,1.9-1,2.7c-.6.7-1.5,1.2-2.7,1.3v1.6h-1.3v-1.6c-1-.1-1.8-.5-2.5-1.1s-1-1.5-1.2-2.7l2.3-.2c0,.5.3.9.5,1.2.3.3.5.6.9.7ZM46.7,36c-.3.1-.6.3-.8.6-.2.3-.3.6-.3.9s0,.6.3.9.5.5.8.6v-3ZM48,45.3c.4,0,.8-.3,1.1-.6.3-.3.4-.7.4-1.1s-.1-.7-.3-1c-.2-.3-.6-.5-1.1-.7v3.4h0Z"/>
                <path d="M16.1,45.2v-3.7c-1.1-.3-2-.8-2.5-1.5-.5-.7-.8-1.5-.8-2.4s.3-1.8.9-2.4c.6-.6,1.4-1,2.4-1.1v-.9h1.3v.9c.9.1,1.7.4,2.2.9.5.5.9,1.2,1,2.1l-2.2.3c-.1-.7-.5-1.2-1-1.4v3.4c1.4.4,2.3.9,2.9,1.5s.8,1.4.8,2.3-.3,1.9-1,2.7c-.6.7-1.5,1.2-2.7,1.3v1.6h-1.3v-1.6c-1-.1-1.8-.5-2.5-1.1-.6-.6-1-1.5-1.2-2.7l2.3-.2c0,.5.3.9.5,1.2.3.3.5.6.9.7ZM16.1,36c-.3.1-.6.3-.8.6-.2.3-.3.6-.3.9s0,.6.3.9.5.5.8.6v-3ZM17.3,45.3c.4,0,.8-.3,1.1-.6.3-.3.4-.7.4-1.1s-.1-.7-.3-1c-.2-.3-.6-.5-1.1-.7v3.4h0Z"/>
                <path class="cls-1" d="M29.8,8.8c0,0,0,.1,0,.2,0,.1,0,.2.1.3,0,0,0,0,0,0,0,.1.1.2.2.3.5.6,1.3,1.1,2.1,1.1s1.6-.4,2.1-1c0-.1.2-.2.2-.4,0,0,0,0,0,0,0-.1.1-.2.2-.3,0,0,0-.1,0-.2,0,0,0-.2,0-.3,0-.2,0-.3,0-.5,0-1.5-1.2-2.7-2.7-2.7s-2.3.9-2.6,2.1c0,.2,0,.4,0,.6s0,.3,0,.5c0,0,0,.2,0,.2Z"/>
                <path class="cls-1" d="M32.3,12.7c-1.5,0-2.8-.7-3.6-1.7l-12.7,11.1h32.1l-12.2-11.1c-.9,1-2.1,1.7-3.6,1.7Z"/>
                <path d="M51,22.2l-14.2-12.9c.1-.4.2-.8.2-1.2,0-2.6-2.1-4.7-4.7-4.7s-4.7,2.1-4.7,4.7,0,.7.1,1.1l-14.8,13H0v38.5h64V22.2h-13ZM29.7,7.5c.3-1.2,1.3-2.1,2.6-2.1s2.7,1.2,2.7,2.7,0,.3,0,.5c0,0,0,.2,0,.3,0,0,0,.1,0,.2,0,.1,0,.2-.2.3,0,0,0,0,0,0,0,.1-.2.2-.2.4-.5.6-1.2,1-2.1,1s-1.6-.4-2.1-1.1c0-.1-.1-.2-.2-.3,0,0,0,0,0,0,0,0,0-.2-.1-.3,0,0,0-.1,0-.2,0,0,0-.2,0-.2,0-.2,0-.3,0-.5s0-.4,0-.6ZM28.7,11c.9,1.1,2.2,1.7,3.6,1.7s2.7-.7,3.6-1.7l12.2,11.1H16l12.7-11.1ZM62,58.6H2V24.2h60v34.5Z"/>
            </g>
            <g class="cls-4">
                <g>
                <path d="M32,0C14.3,0,0,14.3,0,32s14.3,32,32,32,32-14.3,32-32S49.7,0,32,0h0Z"/>
                <circle cx="32.3" cy="8" r="3.7"/>
                <rect x="1.3" y="23.4" width="61.3" height="36"/>
                <path class="cls-1" d="M29.8,8.8c0,0,0,.1,0,.2,0,.1,0,.2.1.3,0,0,0,0,0,0,0,.1.1.2.2.3.5.6,1.3,1.1,2.1,1.1s1.6-.4,2.1-1c0-.1.2-.2.2-.4,0,0,0,0,0,0,0-.1.1-.2.2-.3,0,0,0-.1,0-.2,0,0,0-.2,0-.3,0-.2,0-.3,0-.5,0-1.5-1.2-2.7-2.7-2.7s-2.3.9-2.6,2.1c0,.2,0,.4,0,.6s0,.3,0,.5c0,0,0,.2,0,.2Z"/>
                <path class="cls-1" d="M32.3,12.7c-1.5,0-2.8-.7-3.6-1.7l-12.7,11.1h32.1l-12.2-11.1c-.9,1-2.1,1.7-3.6,1.7Z"/>
                <path d="M51,22.2l-14.2-12.9c.1-.4.2-.8.2-1.2,0-2.6-2.1-4.7-4.7-4.7s-4.7,2.1-4.7,4.7,0,.7.1,1.1l-14.8,13H0v38.5h64V22.2h-13ZM29.7,7.5c.3-1.2,1.3-2.1,2.6-2.1s2.7,1.2,2.7,2.7,0,.3,0,.5c0,0,0,.2,0,.3,0,0,0,.1,0,.2,0,.1,0,.2-.2.3,0,0,0,0,0,0,0,.1-.2.2-.2.4-.5.6-1.2,1-2.1,1s-1.6-.4-2.1-1.1c0-.1-.1-.2-.2-.3,0,0,0,0,0,0,0,0,0-.2-.1-.3,0,0,0-.1,0-.2,0,0,0-.2,0-.2,0-.2,0-.3,0-.5s0-.4,0-.6ZM28.7,11c.9,1.1,2.2,1.7,3.6,1.7s2.7-.7,3.6-1.7l12.2,11.1H16l12.7-11.1ZM62,58.6H2V24.2h60v34.5Z"/>
                </g>
                <path d="M31.1,47.3v-5.5c-1.7-.5-3-1.2-3.8-2.2-.8-1-1.2-2.2-1.2-3.6s.5-2.6,1.4-3.6c.9-1,2.1-1.5,3.6-1.7v-1.3h1.9v1.3c1.4.2,2.5.6,3.3,1.4.8.8,1.4,1.8,1.6,3.2l-3.3.4c-.2-1-.7-1.7-1.6-2.1v5.1c2.1.6,3.5,1.3,4.3,2.2.8.9,1.1,2.1,1.1,3.5s-.5,2.9-1.4,4c-1,1.1-2.3,1.8-4,2v2.5h-1.9v-2.4c-1.5-.2-2.8-.8-3.7-1.7-.9-.9-1.6-2.3-1.8-4l3.4-.4c.1.7.4,1.3.8,1.8.4.5.8.9,1.3,1.1ZM31.1,33.5c-.5.2-.9.5-1.2.9-.3.4-.5.9-.5,1.4s.1.9.4,1.3c.3.4.7.7,1.3,1v-4.6h0ZM33,47.5c.7-.1,1.2-.4,1.6-.9.4-.5.6-1.1.6-1.7s-.2-1.1-.5-1.5c-.3-.4-.9-.8-1.7-1v5.1Z"/>
                <path d="M46.7,45.2v-3.7c-1.1-.3-2-.8-2.5-1.5-.5-.7-.8-1.5-.8-2.4s.3-1.8.9-2.4c.6-.6,1.4-1,2.4-1.1v-.9h1.3v.9c.9.1,1.7.4,2.2.9.5.5.9,1.2,1,2.1l-2.2.3c-.1-.7-.5-1.2-1-1.4v3.4c1.4.4,2.3.9,2.9,1.5s.8,1.4.8,2.3-.3,1.9-1,2.7c-.6.7-1.5,1.2-2.7,1.3v1.6h-1.3v-1.6c-1-.1-1.8-.5-2.5-1.1s-1-1.5-1.2-2.7l2.3-.2c0,.5.3.9.5,1.2.3.3.5.6.9.7ZM46.7,36c-.3.1-.6.3-.8.6-.2.3-.3.6-.3.9s0,.6.3.9.5.5.8.6v-3ZM48,45.3c.4,0,.8-.3,1.1-.6.3-.3.4-.7.4-1.1s-.1-.7-.3-1c-.2-.3-.6-.5-1.1-.7v3.4h0Z"/>
                <path d="M16.1,45.2v-3.7c-1.1-.3-2-.8-2.5-1.5-.5-.7-.8-1.5-.8-2.4s.3-1.8.9-2.4c.6-.6,1.4-1,2.4-1.1v-.9h1.3v.9c.9.1,1.7.4,2.2.9.5.5.9,1.2,1,2.1l-2.2.3c-.1-.7-.5-1.2-1-1.4v3.4c1.4.4,2.3.9,2.9,1.5s.8,1.4.8,2.3-.3,1.9-1,2.7c-.6.7-1.5,1.2-2.7,1.3v1.6h-1.3v-1.6c-1-.1-1.8-.5-2.5-1.1-.6-.6-1-1.5-1.2-2.7l2.3-.2c0,.5.3.9.5,1.2.3.3.5.6.9.7ZM16.1,36c-.3.1-.6.3-.8.6-.2.3-.3.6-.3.9s0,.6.3.9.5.5.8.6v-3ZM17.3,45.3c.4,0,.8-.3,1.1-.6.3-.3.4-.7.4-1.1s-.1-.7-.3-1c-.2-.3-.6-.5-1.1-.7v3.4h0Z"/>
            </g>
            <g class="cls-4">
                <g>
                <path d="M36.9,9.3c.1-.4.2-.8.2-1.2,0-2.6-2.1-4.7-4.7-4.7s-4.7,2.1-4.7,4.7,0,.7.1,1.1l-14.8,13H0v38.5h64V22.2h-13l-14.2-12.9ZM28.7,11c.9,1.1,2.2,1.7,3.6,1.7s2.7-.7,3.6-1.7l12.2,11.1H16l12.7-11.1ZM20,45.9c-.6.7-1.5,1.2-2.7,1.3v1.6h-1.3v-1.6c-1-.1-1.8-.5-2.5-1.1-.6-.6-1-1.5-1.2-2.7l2.3-.2c0,.5.3.9.5,1.2.3.3.5.6.9.7v-3.7c-1.1-.3-2-.8-2.5-1.5-.5-.7-.8-1.5-.8-2.4s.3-1.8.9-2.4c.6-.6,1.4-1,2.4-1.1v-.9h1.3v.9c.9.1,1.7.4,2.2.9.5.5.9,1.2,1,2.1l-2.2.3c-.1-.7-.5-1.2-1-1.4v3.4c1.4.4,2.3.9,2.9,1.5s.8,1.4.8,2.3c0,1.1-.3,1.9-1,2.7ZM37,48.4c-1,1.1-2.3,1.8-4,2v2.5h-1.9v-2.4c-1.5-.2-2.8-.8-3.7-1.7-.9-.9-1.6-2.3-1.8-4l3.4-.4c.1.7.4,1.3.8,1.8.4.5.8.9,1.3,1.1v-5.5c-1.7-.5-3-1.2-3.8-2.2-.8-1-1.2-2.2-1.2-3.6s.5-2.6,1.4-3.6,2.1-1.5,3.6-1.7v-1.3h1.9v1.3c1.4.2,2.5.6,3.3,1.4.8.8,1.4,1.8,1.6,3.2l-3.3.4c-.2-1-.7-1.7-1.6-2.1v5.1c2.1.6,3.5,1.3,4.3,2.2.8.9,1.1,2.1,1.1,3.5,0,1.6-.5,2.9-1.4,4ZM50.8,40.9c.5.6.8,1.4.8,2.3s-.3,1.9-1,2.7c-.6.7-1.5,1.2-2.7,1.3v1.6h-1.3v-1.6c-1-.1-1.8-.5-2.5-1.1s-1-1.5-1.2-2.7l2.3-.2c0,.5.3.9.5,1.2.3.3.5.6.9.7v-3.7c-1.1-.3-2-.8-2.5-1.5-.5-.7-.8-1.5-.8-2.4s.3-1.8.9-2.4c.6-.6,1.4-1,2.4-1.1v-.9h1.3v.9c.9.1,1.7.4,2.2.9.5.5.9,1.2,1,2.1l-2.2.3c-.1-.7-.5-1.2-1-1.4v3.4c1.4.4,2.3.9,2.9,1.5Z"/>
                <path d="M17.3,41.9v3.4c.4,0,.8-.3,1.1-.6.3-.3.4-.7.4-1.1s-.1-.7-.3-1c-.2-.3-.6-.5-1.1-.6Z"/>
                <path d="M33,42.3v5.1c.7-.1,1.2-.4,1.6-.9.4-.5.6-1.1.6-1.7s-.2-1.1-.5-1.5c-.3-.4-.9-.8-1.7-1Z"/>
                <path d="M15.2,36.6c-.2.3-.3.6-.3.9s0,.6.3.9.5.5.8.6v-3c-.3.1-.6.3-.8.6Z"/>
                <path d="M29.8,34.4c-.3.4-.5.9-.5,1.4s.1.9.4,1.3c.3.4.7.7,1.3,1v-4.6c-.5.2-.9.5-1.2.9Z"/>
                <path d="M48,45.3c.4,0,.8-.3,1.1-.6.3-.3.4-.7.4-1.1s-.1-.7-.3-1c-.2-.3-.6-.5-1.1-.7v3.4h0Z"/>
                <path d="M45.9,36.6c-.2.3-.3.6-.3.9s0,.6.3.9.5.5.8.6v-3c-.3.1-.6.3-.8.6Z"/>
                </g>
            </g>
            <g class="cls-4">
                <polygon points="13 24.8 11.7 23.3 32.4 5.2 52.3 23.3 51 24.8 32.3 7.8 13 24.8"/>
                <circle cx="32.3" cy="8.1" r="4.7"/>
                <g>
                <rect x=".5" y="22.7" width="63" height="37.5"/>
                <path d="M63,23.2v36.5H1V23.2h62M64,22.2H0v38.5h64V22.2h0Z"/>
                </g>
                <path d="M31.1,47.5v-5.5c-1.7-.5-3-1.2-3.8-2.2-.8-1-1.2-2.2-1.2-3.6s.5-2.6,1.4-3.6c.9-1,2.1-1.5,3.6-1.7v-1.3h1.9v1.3c1.4.2,2.5.6,3.3,1.4.8.8,1.4,1.8,1.6,3.2l-3.3.4c-.2-1-.7-1.7-1.6-2.1v5.1c2.1.6,3.5,1.3,4.3,2.2.8.9,1.1,2.1,1.1,3.5s-.5,2.9-1.4,4c-1,1.1-2.3,1.8-4,2v2.5h-1.9v-2.4c-1.5-.2-2.8-.8-3.7-1.7-.9-.9-1.6-2.3-1.8-4l3.4-.4c.1.7.4,1.3.8,1.8.4.5.8.9,1.3,1.1ZM31.1,33.7c-.5.2-.9.5-1.2.9-.3.4-.5.9-.5,1.4s.1.9.4,1.3c.3.4.7.7,1.3,1v-4.6h0ZM33,47.7c.7-.1,1.2-.4,1.6-.9.4-.5.6-1.1.6-1.7s-.2-1.1-.5-1.5c-.3-.4-.9-.8-1.7-1v5.1Z"/>
                <g>
                <path d="M46.7,45.5v-3.7c-1.1-.3-2-.8-2.5-1.5-.5-.7-.8-1.5-.8-2.4s.3-1.8.9-2.4c.6-.6,1.4-1,2.4-1.1v-.9h1.3v.9c.9.1,1.7.4,2.2.9.5.5.9,1.2,1,2.1l-2.2.3c-.1-.7-.5-1.2-1-1.4v3.4c1.4.4,2.3.9,2.9,1.5s.8,1.4.8,2.3-.3,1.9-1,2.7c-.6.7-1.5,1.2-2.7,1.3v1.6h-1.3v-1.6c-1-.1-1.8-.5-2.5-1.1s-1-1.5-1.2-2.7l2.3-.2c0,.5.3.9.5,1.2.3.3.5.6.9.7ZM46.7,36.3c-.3.1-.6.3-.8.6-.2.3-.3.6-.3.9s0,.6.3.9.5.5.8.6v-3ZM48,45.6c.4,0,.8-.3,1.1-.6.3-.3.4-.7.4-1.1s-.1-.7-.3-1c-.2-.3-.6-.5-1.1-.7v3.4h0Z"/>
                <path d="M16.1,45.5v-3.7c-1.1-.3-2-.8-2.5-1.5-.5-.7-.8-1.5-.8-2.4s.3-1.8.9-2.4c.6-.6,1.4-1,2.4-1.1v-.9h1.3v.9c.9.1,1.7.4,2.2.9.5.5.9,1.2,1,2.1l-2.2.3c-.1-.7-.5-1.2-1-1.4v3.4c1.4.4,2.3.9,2.9,1.5s.8,1.4.8,2.3-.3,1.9-1,2.7c-.6.7-1.5,1.2-2.7,1.3v1.6h-1.3v-1.6c-1-.1-1.8-.5-2.5-1.1-.6-.6-1-1.5-1.2-2.7l2.3-.2c0,.5.3.9.5,1.2.3.3.5.6.9.7ZM16.1,36.3c-.3.1-.6.3-.8.6-.2.3-.3.6-.3.9s0,.6.3.9.5.5.8.6v-3ZM17.3,45.6c.4,0,.8-.3,1.1-.6.3-.3.4-.7.4-1.1s-.1-.7-.3-1c-.2-.3-.6-.5-1.1-.7v3.4h0Z"/>
                </g>
            </g>
            <g class="cls-4">
                <g>
                <path d="M33,29.6h-1.9v1.3c-1.5.1-2.7.7-3.6,1.7-.9,1-1.4,2.2-1.4,3.6s.4,2.6,1.2,3.6c.8,1,2.1,1.7,3.8,2.2v5.5c-.5-.2-.9-.6-1.3-1.1-.4-.5-.6-1.1-.8-1.8l-3.4.4c.3,1.7.9,3.1,1.8,4,.9.9,2.2,1.5,3.7,1.7v2.4h1.9v-2.5c1.7-.2,3-.9,4-2,1-1.1,1.4-2.4,1.4-4s-.4-2.6-1.1-3.5c-.8-.9-2.2-1.6-4.3-2.2v-5.1c.9.4,1.4,1.1,1.6,2.1l3.3-.4c-.2-1.3-.8-2.4-1.6-3.2-.8-.8-1.9-1.3-3.3-1.4v-1.3h0ZM31.1,38.3c-.6-.2-1-.6-1.3-1s-.4-.8-.4-1.3.2-1,.5-1.4c.3-.4.7-.7,1.2-.9v4.6h0ZM33,47.7v-5.1c.8.2,1.4.6,1.7,1,.3.4.5.9.5,1.5s-.2,1.2-.6,1.7c-.4.5-.9.8-1.6.9h0Z"/>
                <g>
                    <path d="M48,33.5h-1.3v.9c-1,0-1.8.5-2.4,1.1-.6.6-.9,1.5-.9,2.4s.3,1.7.8,2.4c.5.7,1.4,1.2,2.5,1.5v3.7c-.3-.2-.6-.4-.9-.7-.3-.3-.4-.7-.5-1.2l-2.3.2c.2,1.1.6,2,1.2,2.7s1.4,1,2.5,1.1v1.6h1.3v-1.6c1.1-.2,2-.6,2.7-1.3.6-.7,1-1.6,1-2.7s-.3-1.7-.8-2.3c-.5-.6-1.5-1.1-2.9-1.5v-3.4c.6.2.9.7,1,1.4l2.2-.3c-.2-.9-.5-1.6-1-2.1-.5-.5-1.3-.8-2.2-.9v-.9h0ZM46.7,39.3c-.4-.2-.7-.4-.8-.6-.2-.3-.3-.6-.3-.9s.1-.6.3-.9c.2-.3.5-.5.8-.6v3h0ZM48,45.6v-3.4c.5.2.9.4,1.1.7.2.3.3.6.3,1s-.1.8-.4,1.1c-.3.3-.6.5-1.1.6h0Z"/>
                    <path d="M17.3,33.5h-1.3v.9c-1,0-1.8.5-2.4,1.1-.6.6-.9,1.5-.9,2.4s.3,1.7.8,2.4c.5.7,1.4,1.2,2.5,1.5v3.7c-.3-.2-.6-.4-.9-.7-.3-.3-.4-.7-.5-1.2l-2.3.2c.2,1.1.6,2,1.2,2.7s1.4,1,2.5,1.1v1.6h1.3v-1.6c1.1-.2,2-.6,2.7-1.3.6-.7,1-1.6,1-2.7s-.3-1.7-.8-2.3c-.5-.6-1.5-1.1-2.9-1.5v-3.4c.6.2.9.7,1,1.4l2.2-.3c-.2-.9-.5-1.6-1-2.1-.5-.5-1.3-.8-2.2-.9v-.9h0ZM16.1,39.3c-.4-.2-.7-.4-.8-.6-.2-.3-.3-.6-.3-.9s.1-.6.3-.9c.2-.3.5-.5.8-.6v3h0ZM17.3,45.6v-3.4c.5.2.9.4,1.1.7.2.3.3.6.3,1s-.1.8-.4,1.1c-.3.3-.6.5-1.1.6h0Z"/>
                </g>
                </g>
                <g>
                <path class="cls-1" d="M32.3,12.7c-1.5,0-2.8-.7-3.6-1.7l-12.7,11.1h32.1l-12.2-11.1c-.9,1-2.1,1.7-3.6,1.7Z"/>
                <path d="M51,22.2l-14.2-12.9c.1-.4.2-.8.2-1.2,0-2.6-2.1-4.7-4.7-4.7s-4.7,2.1-4.7,4.7,0,.7.1,1.1l-14.8,13H0v38.5h64V22.2h-13ZM29.7,7.5c.3-1.2,1.3-2.1,2.6-2.1s2.7,1.2,2.7,2.7,0,.3,0,.5c0,0,0,.2,0,.3,0,0,0,.1,0,.2,0,.1,0,.2-.2.3,0,0,0,0,0,0,0,.1-.2.2-.2.4-.5.6-1.2,1-2.1,1s-1.6-.4-2.1-1.1c0-.1-.1-.2-.2-.3,0,0,0,0,0,0,0,0,0-.2-.1-.3,0,0,0-.1,0-.2,0,0,0-.2,0-.2,0-.2,0-.3,0-.5s0-.4,0-.6ZM28.7,11c.9,1.1,2.2,1.7,3.6,1.7s2.7-.7,3.6-1.7l12.2,11.1H16l12.7-11.1ZM62,58.6H2V24.2h60v34.5Z"/>
                </g>
            </g>
            <g class="cls-4">
                <g>
                <path d="M33,29.6h-1.9v1.3c-1.5.1-2.7.7-3.6,1.7-.9,1-1.4,2.2-1.4,3.6s.4,2.6,1.2,3.6c.8,1,2.1,1.7,3.8,2.2v5.5c-.5-.2-.9-.6-1.3-1.1-.4-.5-.6-1.1-.8-1.8l-3.4.4c.3,1.7.9,3.1,1.8,4,.9.9,2.2,1.5,3.7,1.7v2.4h1.9v-2.5c1.7-.2,3-.9,4-2,1-1.1,1.4-2.4,1.4-4s-.4-2.6-1.1-3.5c-.8-.9-2.2-1.6-4.3-2.2v-5.1c.9.4,1.4,1.1,1.6,2.1l3.3-.4c-.2-1.3-.8-2.4-1.6-3.2-.8-.8-1.9-1.3-3.3-1.4v-1.3h0ZM31.1,38.3c-.6-.2-1-.6-1.3-1s-.4-.8-.4-1.3.2-1,.5-1.4c.3-.4.7-.7,1.2-.9v4.6h0ZM33,47.7v-5.1c.8.2,1.4.6,1.7,1,.3.4.5.9.5,1.5s-.2,1.2-.6,1.7c-.4.5-.9.8-1.6.9h0Z"/>
                <g>
                    <path d="M48,33.5h-1.3v.9c-1,0-1.8.5-2.4,1.1-.6.6-.9,1.5-.9,2.4s.3,1.7.8,2.4c.5.7,1.4,1.2,2.5,1.5v3.7c-.3-.2-.6-.4-.9-.7-.3-.3-.4-.7-.5-1.2l-2.3.2c.2,1.1.6,2,1.2,2.7s1.4,1,2.5,1.1v1.6h1.3v-1.6c1.1-.2,2-.6,2.7-1.3.6-.7,1-1.6,1-2.7s-.3-1.7-.8-2.3c-.5-.6-1.5-1.1-2.9-1.5v-3.4c.6.2.9.7,1,1.4l2.2-.3c-.2-.9-.5-1.6-1-2.1-.5-.5-1.3-.8-2.2-.9v-.9h0ZM46.7,39.3c-.4-.2-.7-.4-.8-.6-.2-.3-.3-.6-.3-.9s.1-.6.3-.9c.2-.3.5-.5.8-.6v3h0ZM48,45.6v-3.4c.5.2.9.4,1.1.7.2.3.3.6.3,1s-.1.8-.4,1.1c-.3.3-.6.5-1.1.6h0Z"/>
                    <path d="M17.3,33.5h-1.3v.9c-1,0-1.8.5-2.4,1.1-.6.6-.9,1.5-.9,2.4s.3,1.7.8,2.4c.5.7,1.4,1.2,2.5,1.5v3.7c-.3-.2-.6-.4-.9-.7-.3-.3-.4-.7-.5-1.2l-2.3.2c.2,1.1.6,2,1.2,2.7s1.4,1,2.5,1.1v1.6h1.3v-1.6c1.1-.2,2-.6,2.7-1.3.6-.7,1-1.6,1-2.7s-.3-1.7-.8-2.3c-.5-.6-1.5-1.1-2.9-1.5v-3.4c.6.2.9.7,1,1.4l2.2-.3c-.2-.9-.5-1.6-1-2.1-.5-.5-1.3-.8-2.2-.9v-.9h0ZM16.1,39.3c-.4-.2-.7-.4-.8-.6-.2-.3-.3-.6-.3-.9s.1-.6.3-.9c.2-.3.5-.5.8-.6v3h0ZM17.3,45.6v-3.4c.5.2.9.4,1.1.7.2.3.3.6.3,1s-.1.8-.4,1.1c-.3.3-.6.5-1.1.6h0Z"/>
                </g>
                </g>
                <g>
                <path class="cls-1" d="M32.3,12.7c-1.5,0-2.8-.7-3.6-1.7l-12.7,11.1h32.1l-12.2-11.1c-.9,1-2.1,1.7-3.6,1.7Z"/>
                <path d="M51,22.2l-14.2-12.9c.1-.4.2-.8.2-1.2,0-2.6-2.1-4.7-4.7-4.7s-4.7,2.1-4.7,4.7,0,.7.1,1.1l-14.8,13H0v38.5h64V22.2h-13ZM29.7,7.5c.3-1.2,1.3-2.1,2.6-2.1s2.7,1.2,2.7,2.7,0,.3,0,.5c0,0,0,.2,0,.3,0,0,0,.1,0,.2,0,.1,0,.2-.2.3,0,0,0,0,0,0,0,.1-.2.2-.2.4-.5.6-1.2,1-2.1,1s-1.6-.4-2.1-1.1c0-.1-.1-.2-.2-.3,0,0,0,0,0,0,0,0,0-.2-.1-.3,0,0,0-.1,0-.2,0,0,0-.2,0-.2,0-.2,0-.3,0-.5s0-.4,0-.6ZM28.7,11c.9,1.1,2.2,1.7,3.6,1.7s2.7-.7,3.6-1.7l12.2,11.1H16l12.7-11.1ZM62,58.6H2V24.2h60v34.5Z"/>
                </g>
            </g>
            <g class="cls-4">
                <g>
                <path d="M32,0C14.3,0,0,14.3,0,32s14.3,32,32,32,32-14.3,32-32S49.7,0,32,0h0Z"/>
                <circle cx="32.3" cy="8" r="3.7"/>
                <rect x="1.3" y="23.4" width="61.3" height="36"/>
                <path class="cls-1" d="M29.8,8.8c0,0,0,.1,0,.2,0,.1,0,.2.1.3,0,0,0,0,0,0,0,.1.1.2.2.3.5.6,1.3,1.1,2.1,1.1s1.6-.4,2.1-1c0-.1.2-.2.2-.4,0,0,0,0,0,0,0-.1.1-.2.2-.3,0,0,0-.1,0-.2,0,0,0-.2,0-.3,0-.2,0-.3,0-.5,0-1.5-1.2-2.7-2.7-2.7s-2.3.9-2.6,2.1c0,.2,0,.4,0,.6s0,.3,0,.5c0,0,0,.2,0,.2Z"/>
                <path class="cls-1" d="M32.3,12.7c-1.5,0-2.8-.7-3.6-1.7l-12.7,11.1h32.1l-12.2-11.1c-.9,1-2.1,1.7-3.6,1.7Z"/>
                <path d="M51,22.2l-14.2-12.9c.1-.4.2-.8.2-1.2,0-2.6-2.1-4.7-4.7-4.7s-4.7,2.1-4.7,4.7,0,.7.1,1.1l-14.8,13H0v38.5h64V22.2h-13ZM29.7,7.5c.3-1.2,1.3-2.1,2.6-2.1s2.7,1.2,2.7,2.7,0,.3,0,.5c0,0,0,.2,0,.3,0,0,0,.1,0,.2,0,.1,0,.2-.2.3,0,0,0,0,0,0,0,.1-.2.2-.2.4-.5.6-1.2,1-2.1,1s-1.6-.4-2.1-1.1c0-.1-.1-.2-.2-.3,0,0,0,0,0,0,0,0,0-.2-.1-.3,0,0,0-.1,0-.2,0,0,0-.2,0-.2,0-.2,0-.3,0-.5s0-.4,0-.6ZM28.7,11c.9,1.1,2.2,1.7,3.6,1.7s2.7-.7,3.6-1.7l12.2,11.1H16l12.7-11.1ZM62,58.6H2V24.2h60v34.5Z"/>
                </g>
                <path d="M31.1,47.5v-5.5c-1.7-.5-3-1.2-3.8-2.2-.8-1-1.2-2.2-1.2-3.6s.5-2.6,1.4-3.6c.9-1,2.1-1.5,3.6-1.7v-1.3h1.9v1.3c1.4.2,2.5.6,3.3,1.4.8.8,1.4,1.8,1.6,3.2l-3.3.4c-.2-1-.7-1.7-1.6-2.1v5.1c2.1.6,3.5,1.3,4.3,2.2.8.9,1.1,2.1,1.1,3.5s-.5,2.9-1.4,4c-1,1.1-2.3,1.8-4,2v2.5h-1.9v-2.4c-1.5-.2-2.8-.8-3.7-1.7-.9-.9-1.6-2.3-1.8-4l3.4-.4c.1.7.4,1.3.8,1.8.4.5.8.9,1.3,1.1ZM31.1,33.7c-.5.2-.9.5-1.2.9-.3.4-.5.9-.5,1.4s.1.9.4,1.3c.3.4.7.7,1.3,1v-4.6h0ZM33,47.7c.7-.1,1.2-.4,1.6-.9.4-.5.6-1.1.6-1.7s-.2-1.1-.5-1.5c-.3-.4-.9-.8-1.7-1v5.1Z"/>
                <path d="M46.7,45.5v-3.7c-1.1-.3-2-.8-2.5-1.5-.5-.7-.8-1.5-.8-2.4s.3-1.8.9-2.4c.6-.6,1.4-1,2.4-1.1v-.9h1.3v.9c.9.1,1.7.4,2.2.9.5.5.9,1.2,1,2.1l-2.2.3c-.1-.7-.5-1.2-1-1.4v3.4c1.4.4,2.3.9,2.9,1.5s.8,1.4.8,2.3-.3,1.9-1,2.7c-.6.7-1.5,1.2-2.7,1.3v1.6h-1.3v-1.6c-1-.1-1.8-.5-2.5-1.1s-1-1.5-1.2-2.7l2.3-.2c0,.5.3.9.5,1.2.3.3.5.6.9.7ZM46.7,36.3c-.3.1-.6.3-.8.6-.2.3-.3.6-.3.9s0,.6.3.9.5.5.8.6v-3ZM48,45.6c.4,0,.8-.3,1.1-.6.3-.3.4-.7.4-1.1s-.1-.7-.3-1c-.2-.3-.6-.5-1.1-.7v3.4h0Z"/>
                <path d="M16.1,45.5v-3.7c-1.1-.3-2-.8-2.5-1.5-.5-.7-.8-1.5-.8-2.4s.3-1.8.9-2.4c.6-.6,1.4-1,2.4-1.1v-.9h1.3v.9c.9.1,1.7.4,2.2.9.5.5.9,1.2,1,2.1l-2.2.3c-.1-.7-.5-1.2-1-1.4v3.4c1.4.4,2.3.9,2.9,1.5s.8,1.4.8,2.3-.3,1.9-1,2.7c-.6.7-1.5,1.2-2.7,1.3v1.6h-1.3v-1.6c-1-.1-1.8-.5-2.5-1.1-.6-.6-1-1.5-1.2-2.7l2.3-.2c0,.5.3.9.5,1.2.3.3.5.6.9.7ZM16.1,36.3c-.3.1-.6.3-.8.6-.2.3-.3.6-.3.9s0,.6.3.9.5.5.8.6v-3ZM17.3,45.6c.4,0,.8-.3,1.1-.6.3-.3.4-.7.4-1.1s-.1-.7-.3-1c-.2-.3-.6-.5-1.1-.7v3.4h0Z"/>
            </g>
            <g class="cls-4">
                <path d="M36.9,9.3c.1-.4.2-.8.2-1.2,0-2.6-2.1-4.7-4.7-4.7s-4.7,2.1-4.7,4.7,0,.7.1,1.1l-14.8,13H0v38.5h64V22.2h-13l-14.2-12.9ZM28.7,11c.9,1.1,2.2,1.7,3.6,1.7s2.7-.7,3.6-1.7l12.2,11.1H16l12.7-11.1ZM20,46.2c-.6.7-1.5,1.2-2.7,1.3v1.6h-1.3v-1.6c-1-.1-1.8-.5-2.5-1.1-.6-.6-1-1.5-1.2-2.7l2.3-.2c0,.5.3.9.5,1.2.3.3.5.6.9.7v-3.7c-1.1-.3-2-.8-2.5-1.5-.5-.7-.8-1.5-.8-2.4s.3-1.8.9-2.4c.6-.6,1.4-1,2.4-1.1v-.9h1.3v.9c.9.1,1.7.4,2.2.9.5.5.9,1.2,1,2.1l-2.2.3c-.1-.7-.5-1.2-1-1.4v3.4c1.4.4,2.3.9,2.9,1.5s.8,1.4.8,2.3c0,1.1-.3,1.9-1,2.7ZM37,48.6c-1,1.1-2.3,1.8-4,2v2.5h-1.9v-2.4c-1.5-.2-2.8-.8-3.7-1.7-.9-.9-1.6-2.3-1.8-4l3.4-.4c.1.7.4,1.3.8,1.8.4.5.8.9,1.3,1.1v-5.5c-1.7-.5-3-1.2-3.8-2.2-.8-1-1.2-2.2-1.2-3.6s.5-2.6,1.4-3.6,2.1-1.5,3.6-1.7v-1.3h1.9v1.3c1.4.2,2.5.6,3.3,1.4.8.8,1.4,1.8,1.6,3.2l-3.3.4c-.2-1-.7-1.7-1.6-2.1v5.1c2.1.6,3.5,1.3,4.3,2.2.8.9,1.1,2.1,1.1,3.5,0,1.6-.5,2.9-1.4,4ZM50.8,41.2c.5.6.8,1.4.8,2.3s-.3,1.9-1,2.7c-.6.7-1.5,1.2-2.7,1.3v1.6h-1.3v-1.6c-1-.1-1.8-.5-2.5-1.1s-1-1.5-1.2-2.7l2.3-.2c0,.5.3.9.5,1.2.3.3.5.6.9.7v-3.7c-1.1-.3-2-.8-2.5-1.5-.5-.7-.8-1.5-.8-2.4s.3-1.8.9-2.4c.6-.6,1.4-1,2.4-1.1v-.9h1.3v.9c.9.1,1.7.4,2.2.9.5.5.9,1.2,1,2.1l-2.2.3c-.1-.7-.5-1.2-1-1.4v3.4c1.4.4,2.3.9,2.9,1.5Z"/>
                <path d="M17.3,42.2v3.4c.4,0,.8-.3,1.1-.6.3-.3.4-.7.4-1.1s-.1-.7-.3-1c-.2-.3-.6-.5-1.1-.6Z"/>
                <path d="M29.8,34.6c-.3.4-.5.9-.5,1.4s.1.9.4,1.3c.3.4.7.7,1.3,1v-4.6c-.5.2-.9.5-1.2.9Z"/>
                <path d="M15.2,36.9c-.2.3-.3.6-.3.9s0,.6.3.9.5.5.8.6v-3c-.3.1-.6.3-.8.6Z"/>
                <path d="M33,42.6v5.1c.7-.1,1.2-.4,1.6-.9.4-.5.6-1.1.6-1.7s-.2-1.1-.5-1.5c-.3-.4-.9-.8-1.7-1Z"/>
                <path d="M48,45.6c.4,0,.8-.3,1.1-.6.3-.3.4-.7.4-1.1s-.1-.7-.3-1c-.2-.3-.6-.5-1.1-.7v3.4h0Z"/>
                <path d="M45.9,36.9c-.2.3-.3.6-.3.9s0,.6.3.9.5.5.8.6v-3c-.3.1-.6.3-.8.6Z"/>
            </g>
            <g class="cls-4">
                <polygon points="13 24.8 11.7 23.3 32.4 5.2 52.3 23.3 51 24.8 32.3 7.8 13 24.8"/>
                <circle cx="32.3" cy="8.1" r="4.7"/>
                <g>
                <rect x=".5" y="22.7" width="63" height="37.5"/>
                <path d="M63,23.2v36.5H1V23.2h62M64,22.2H0v38.5h64V22.2h0Z"/>
                </g>
                <g>
                <path d="M43.3,36.5v16.2h-22.5s0-16.2,0-16.2"/>
                <path d="M25,37.5c0,1.9-1.6,3.5-3.5,3.5s-3.5-1.6-3.5-3.5v-4.2h27.9v4.2c0,1.9-1.6,3.5-3.5,3.5s-3.5-1.6-3.5-3.5"/>
                <path d="M25,37.5c0,1.9,1.6,3.5,3.5,3.5s3.5-1.6,3.5-3.5"/>
                <path d="M32,37.5c0,1.9,1.6,3.5,3.5,3.5s3.5-1.6,3.5-3.5"/>
                <rect x="18.1" y="51.9" width="27.8" height="1.7"/>
                <rect x="28.5" y="43.8" width="7" height="8.1"/>
                <polyline points="32 28.9 22.5 28.9 18.1 33.3 45.9 33.3 41.5 28.9 30.8 28.9"/>
                </g>
            </g>
            <g class="cls-4">
                <g>
                <path class="cls-1" d="M32.3,12.7c-1.5,0-2.8-.7-3.6-1.7l-12.7,11.1h32.1l-12.2-11.1c-.9,1-2.1,1.7-3.6,1.7Z"/>
                <path d="M51,22.2l-14.2-12.9c.1-.4.2-.8.2-1.2,0-2.6-2.1-4.7-4.7-4.7s-4.7,2.1-4.7,4.7,0,.7.1,1.1l-14.8,13H0v38.5h64V22.2h-13ZM29.7,7.5c.3-1.2,1.3-2.1,2.6-2.1s2.7,1.2,2.7,2.7,0,.3,0,.5c0,0,0,.2,0,.3,0,0,0,.1,0,.2,0,.1,0,.2-.2.3,0,0,0,0,0,0,0,.1-.2.2-.2.4-.5.6-1.2,1-2.1,1s-1.6-.4-2.1-1.1c0-.1-.1-.2-.2-.3,0,0,0,0,0,0,0,0,0-.2-.1-.3,0,0,0-.1,0-.2,0,0,0-.2,0-.2,0-.2,0-.3,0-.5s0-.4,0-.6ZM28.7,11c.9,1.1,2.2,1.7,3.6,1.7s2.7-.7,3.6-1.7l12.2,11.1H16l12.7-11.1ZM62,58.6H2V24.2h60v34.5Z"/>
                </g>
                <g>
                <path class="cls-2" d="M19.7,54.2v-12.9M44.3,41.4v12.8"/>
                <path class="cls-2" d="M24.4,37.6c0,2.1-1.7,3.8-3.8,3.8s-3.8-1.7-3.8-3.8v-4.6l2.8-4.3h24.7l2.9,4.3v4.6c0,2.1-1.7,3.8-3.8,3.8s-3.8-1.7-3.8-3.8"/>
                <path class="cls-2" d="M24.4,37.6c0,2.1,1.7,3.8,3.8,3.8s3.8-1.7,3.8-3.8"/>
                <path class="cls-2" d="M32,37.6c0,2.1,1.7,3.8,3.8,3.8s3.8-1.7,3.8-3.8"/>
                <g>
                    <line class="cls-2" x1="16.8" y1="54.2" x2="47.2" y2="54.2"/>
                    <polyline class="cls-2" points="35.8 54.2 35.8 45.4 28.2 45.4 28.2 54.2"/>
                </g>
                <line class="cls-2" x1="17" y1="33.1" x2="46.9" y2="33.1"/>
                </g>
            </g>
            <g class="cls-4">
                <g>
                <path class="cls-1" d="M32.3,12.7c-1.5,0-2.8-.7-3.6-1.7l-12.7,11.1h32.1l-12.2-11.1c-.9,1-2.1,1.7-3.6,1.7Z"/>
                <path d="M51,22.2l-14.2-12.9c.1-.4.2-.8.2-1.2,0-2.6-2.1-4.7-4.7-4.7s-4.7,2.1-4.7,4.7,0,.7.1,1.1l-14.8,13H0v38.5h64V22.2h-13ZM29.7,7.5c.3-1.2,1.3-2.1,2.6-2.1s2.7,1.2,2.7,2.7,0,.3,0,.5c0,0,0,.2,0,.3,0,0,0,.1,0,.2,0,.1,0,.2-.2.3,0,0,0,0,0,0,0,.1-.2.2-.2.4-.5.6-1.2,1-2.1,1s-1.6-.4-2.1-1.1c0-.1-.1-.2-.2-.3,0,0,0,0,0,0,0,0,0-.2-.1-.3,0,0,0-.1,0-.2,0,0,0-.2,0-.2,0-.2,0-.3,0-.5s0-.4,0-.6ZM28.7,11c.9,1.1,2.2,1.7,3.6,1.7s2.7-.7,3.6-1.7l12.2,11.1H16l12.7-11.1ZM62,58.6H2V24.2h60v34.5Z"/>
                </g>
                <g>
                <path class="cls-2" d="M19.7,54.2v-12.9M44.3,41.4v12.8"/>
                <path class="cls-2" d="M24.4,37.6c0,2.1-1.7,3.8-3.8,3.8s-3.8-1.7-3.8-3.8v-4.6l2.8-4.3h24.7l2.9,4.3v4.6c0,2.1-1.7,3.8-3.8,3.8s-3.8-1.7-3.8-3.8"/>
                <path class="cls-2" d="M24.4,37.6c0,2.1,1.7,3.8,3.8,3.8s3.8-1.7,3.8-3.8"/>
                <path class="cls-2" d="M32,37.6c0,2.1,1.7,3.8,3.8,3.8s3.8-1.7,3.8-3.8"/>
                <g>
                    <line class="cls-2" x1="16.8" y1="54.2" x2="47.2" y2="54.2"/>
                    <polyline class="cls-2" points="35.8 54.2 35.8 45.4 28.2 45.4 28.2 54.2"/>
                </g>
                <line class="cls-2" x1="17" y1="33.1" x2="46.9" y2="33.1"/>
                </g>
            </g>
            <g class="cls-4">
                <g>
                <path d="M32,0C14.3,0,0,14.3,0,32s14.3,32,32,32,32-14.3,32-32S49.7,0,32,0h0Z"/>
                <circle cx="32.3" cy="8" r="3.7"/>
                <rect x="1.3" y="23.4" width="61.3" height="36"/>
                <path class="cls-1" d="M29.8,8.8c0,0,0,.1,0,.2,0,.1,0,.2.1.3,0,0,0,0,0,0,0,.1.1.2.2.3.5.6,1.3,1.1,2.1,1.1s1.6-.4,2.1-1c0-.1.2-.2.2-.4,0,0,0,0,0,0,0-.1.1-.2.2-.3,0,0,0-.1,0-.2,0,0,0-.2,0-.3,0-.2,0-.3,0-.5,0-1.5-1.2-2.7-2.7-2.7s-2.3.9-2.6,2.1c0,.2,0,.4,0,.6s0,.3,0,.5c0,0,0,.2,0,.2Z"/>
                <path class="cls-1" d="M32.3,12.7c-1.5,0-2.8-.7-3.6-1.7l-12.7,11.1h32.1l-12.2-11.1c-.9,1-2.1,1.7-3.6,1.7Z"/>
                <path d="M51,22.2l-14.2-12.9c.1-.4.2-.8.2-1.2,0-2.6-2.1-4.7-4.7-4.7s-4.7,2.1-4.7,4.7,0,.7.1,1.1l-14.8,13H0v38.5h64V22.2h-13ZM29.7,7.5c.3-1.2,1.3-2.1,2.6-2.1s2.7,1.2,2.7,2.7,0,.3,0,.5c0,0,0,.2,0,.3,0,0,0,.1,0,.2,0,.1,0,.2-.2.3,0,0,0,0,0,0,0,.1-.2.2-.2.4-.5.6-1.2,1-2.1,1s-1.6-.4-2.1-1.1c0-.1-.1-.2-.2-.3,0,0,0,0,0,0,0,0,0-.2-.1-.3,0,0,0-.1,0-.2,0,0,0-.2,0-.2,0-.2,0-.3,0-.5s0-.4,0-.6ZM28.7,11c.9,1.1,2.2,1.7,3.6,1.7s2.7-.7,3.6-1.7l12.2,11.1H16l12.7-11.1ZM62,58.6H2V24.2h60v34.5Z"/>
                </g>
                <rect x="19.9" y="37.1" width="24.8" height="17"/>
                <path class="cls-2" d="M19.7,54.2v-12.9M44.3,41.4v12.8"/>
                <path class="cls-3" d="M24.4,37.6c0,2.1-1.7,3.8-3.8,3.8s-3.8-1.7-3.8-3.8v-4.6l2.8-4.3h24.7l2.9,4.3v4.6c0,2.1-1.7,3.8-3.8,3.8s-3.8-1.7-3.8-3.8"/>
                <path class="cls-3" d="M24.4,37.6c0,2.1,1.7,3.8,3.8,3.8s3.8-1.7,3.8-3.8"/>
                <path class="cls-3" d="M32,37.6c0,2.1,1.7,3.8,3.8,3.8s3.8-1.7,3.8-3.8"/>
                <g>
                <line class="cls-2" x1="16.8" y1="54.2" x2="47.2" y2="54.2"/>
                <polyline class="cls-2" points="35.8 54.2 35.8 45.4 28.2 45.4 28.2 54.2"/>
                </g>
                <line class="cls-2" x1="17" y1="33.1" x2="46.9" y2="33.1"/>
            </g>
            <g class="cls-4">
                <g>
                <path d="M36.9,9.3c.1-.4.2-.8.2-1.2,0-2.6-2.1-4.7-4.7-4.7s-4.7,2.1-4.7,4.7,0,.7.1,1.1l-14.8,13H0v38.5h64V22.2h-13l-14.2-12.9ZM45.9,53.6h-27.8v-1.7h2.7v-9.5c.3,0,.5,0,.8,0,1.4,0,2.6-.5,3.5-1.4.9.9,2.1,1.4,3.5,1.4s2.6-.5,3.5-1.4c.9.9,2.1,1.4,3.5,1.4s2.6-.5,3.5-1.4c.9.9,2.1,1.4,3.5,1.4s.5,0,.8,0v9.5h2.7v1.7h0ZM45.9,37.5c0,1.9-1.6,3.5-3.5,3.5s-3.5-1.6-3.5-3.5c0,1.9-1.6,3.5-3.5,3.5s-3.5-1.6-3.5-3.5c0,1.9-1.6,3.5-3.5,3.5s-3.5-1.6-3.5-3.5c0,1.9-1.6,3.5-3.5,3.5s-3.5-1.6-3.5-3.5v-4.2l4.4-4.4h18.9l4.4,4.4h0v4.2h0ZM16,22.2l12.7-11.1c.9,1.1,2.2,1.7,3.6,1.7s2.7-.7,3.6-1.7l12.2,11.1H16Z"/>
                <rect x="28.5" y="45.1" width="7" height="6.8"/>
                </g>
            </g>
            </g>
        </g>
    </symbol>
    <!-- Icons go here -->
  </defs>
</svg>