<svg xmlns="http://www.w3.org/2000/svg">
  <defs>
    <symbol id="icon-profile" viewBox="0 0 110 135">
      <g>
          <path d="M55,22.5c-11.5,0-20.8,9.4-20.8,20.8h0c0,5.4,2.6,10.3,6.3,14.1-13.3,3.8-22.9,15.6-22.9,29.7,0,5.7,4.7,10.4,10.4,10.4h54.2c5.7,0,10.4-4.7,10.4-10.4,0-14.1-9.6-25.9-22.9-29.7,3.7-3.8,6.2-8.7,6.2-14.1h0c0-11.5-9.4-20.8-20.8-20.8h0ZM55,26.7c9.2,0,16.7,7.4,16.7,16.7,0,5.3-2.5,10.2-6.7,13.3h0c-.7.5-1,1.3-.8,2.2.2.8.9,1.4,1.7,1.6,13,2.2,22.5,13.5,22.5,26.7,0,3.5-2.8,6.2-6.2,6.2H27.9c-3.5,0-6.2-2.8-6.2-6.2,0-13.2,9.5-24.5,22.6-26.7.8-.1,1.5-.8,1.7-1.6.2-.8-.1-1.7-.8-2.2-4.2-3.1-6.8-8.1-6.8-13.4h0c0-9.2,7.4-16.7,16.7-16.7h0Z"/>
      </g>
    </symbol>

    <symbol id="icon-list" viewBox="0 0 100 125">
      <g>
        <path d="m14.26321,6c-4.00125,0 -7.27108,3.41105 -7.27108,7.58508l0,98.82991c0,4.17396 3.26983,7.58501 7.27108,7.58501l70.43056,0c4.00124,0 7.31409,-3.41105 7.31409,-7.58501l0,-98.82991c0,-4.17403 -3.31286,-7.58508 -7.31409,-7.58508l-70.43056,0zm0,5.07169l70.43056,0c1.37675,0 2.45237,1.0771 2.45237,2.51339l0,98.82991c0,1.43621 -1.07561,2.51331 -2.45237,2.51331l-70.43056,0c-1.37677,0 -2.40935,-1.0771 -2.40935,-2.51331l0,-98.82991c0,-1.43629 1.03258,-2.51339 2.40935,-2.51339zm6.0664,16.47161l0,10.1433l9.72346,0l0,-10.1433l-9.72346,0zm20.6516,2.51339c-1.33376,0 -2.40936,1.12202 -2.40936,2.5583c0,1.39129 1.07561,2.51331 2.40936,2.51331l35.23679,0c1.33373,0 2.40935,-1.12202 2.40935,-2.51331c0,-1.43629 -1.07561,-2.5583 -2.40935,-2.5583l-35.23679,0zm-20.6516,17.72839l0,10.14323l9.72346,0l0,-10.14323l-9.72346,0zm20.6516,2.55823c-1.33376,0 -2.40936,1.12202 -2.40936,2.51339c0,1.39137 1.07561,2.5583 2.40936,2.5583l35.23679,0c1.33373,0 2.40935,-1.16693 2.40935,-2.5583c0,-1.39137 -1.07561,-2.51339 -2.40935,-2.51339l-35.23679,0zm-20.6516,17.72839l0,10.1433l9.72346,0l0,-10.1433l-9.72346,0zm20.6516,2.51338c-1.33376,0 -2.40936,1.16686 -2.40936,2.55823c0,1.39137 1.07561,2.51339 2.40936,2.51339l35.23679,0c1.33373,0 2.40935,-1.12202 2.40935,-2.51339c0,-1.39137 -1.07561,-2.55823 -2.40935,-2.55823l-35.23679,0zm-20.6516,17.72831l0,10.14331l9.72346,0l0,-10.14331l-9.72346,0zm20.6516,2.55823c-1.33376,0 -2.40936,1.12209 -2.40936,2.51347c0,1.43621 1.07561,2.55823 2.40936,2.55823l35.23679,0c1.33373,0 2.40935,-1.12202 2.40935,-2.55823c0,-1.39137 -1.07561,-2.51347 -2.40935,-2.51347l-35.23679,0z"/>
        <path d="m300.47528,-110.62111l81.69067,0l25.23999,-135.00806l25.23947,135.00806l81.69125,0l-66.0899,83.44351l25.23996,135.01376l-66.08078,-83.44334l-66.08789,83.44334l25.24512,-135.01376l-66.08789,-83.44351l0,0z" stroke="#000" fill="#fff"/>
        <path d="m181.69302,-100.85281l81.6879,0l25.24374,-141.82092l25.24283,141.82092l81.68692,0l-66.08936,87.64529l25.24945,141.82092l-66.08984,-87.65029l-66.08936,87.65029l25.24277,-141.82092l-66.08505,-87.64529l0,0z" stroke="#000" fill="#fff"/>
      </g>
    </symbol>

    <symbol id="icon-home" viewBox="0 0 500 500">
      <g>
        <path d="M 477.083 277.498 L 431.235 277.498 L 431.235 463.81 C 431.235 480.207 418.135 493.621 402.125 493.621 L 300.239 493.621 L 300.239 366.927 L 198.352 366.927 L 198.352 493.621 L 96.466 493.621 C 80.455 493.621 67.356 480.207 67.356 463.81 L 67.356 277.498 L 21.508 277.498 C 8.408 277.498 1.857 261.848 11.319 252.159 L 239.107 12.932 C 244.929 6.97 254.388 6.97 260.213 12.932 L 487.999 252.159 C 496.005 261.848 489.455 277.498 477.083 277.498 Z" style=""/>
      </g>
    </symbol>

    <symbol id="icon-back-arrow" viewBox="0 0 500 500">
      <g>
        <path d="M 466.406 123.319 L 250.92 123.319 C 249.371 123.319 246.24 121.803 246.24 118.756 L 246.24 71.53 C 246.24 56.284 233.743 44.11 218.139 44.11 C 210.333 44.11 204.085 47.158 197.834 51.721 L 18.235 226.91 C 13.558 231.475 10.435 239.104 10.435 246.719 C 10.435 254.333 13.558 260.43 18.235 266.524 L 197.815 441.713 C 202.491 446.278 210.312 449.325 218.12 449.325 C 225.92 449.325 232.166 446.278 236.846 441.713 C 243.098 437.151 246.22 429.522 246.22 421.909 L 246.22 374.685 C 246.22 373.168 247.776 370.12 250.899 370.12 L 466.383 370.12 C 482.01 370.12 494.492 357.927 494.492 342.701 L 494.511 150.754 C 494.511 135.512 482.01 123.319 466.406 123.319 Z" style=""/>
      </g>
    </symbol>

    <symbol id="icon-logo" viewBox="0 0 446.27 493.6">
      <g>
        <path d="m427.85666,210.5495l0,6.76883l-39.11896,133.64798c-1.92792,6.90073 -7.38062,8.7348 -14.54547,9.22299l-267.68908,-0.03958l-4.79092,31.0336c7.33749,5.81885 13.69669,11.8092 17.63876,20.12177l185.94073,-0.02637c2.2157,-0.38263 4.60391,-6.34662 6.2872,-8.52368c38.37088,-49.65121 119.371,6.32019 78.89969,53.55682c-27.17749,31.71979 -81.74832,17.68073 -87.24426,-21.73151l-178.32989,-0.03955l-2.46021,0.75201c-5.20819,31.1261 -42.71576,48.43738 -73.05844,32.48511c-23.26414,-12.23138 -31.17712,-39.78168 -18.14229,-61.24927c8.87695,-14.60645 28.31409,-24.59467 46.55711,-22.3252l6.01389,-36.72055l-36.34219,-206.28418l-35.21999,-16.74393c-10.24371,-10.96469 -0.11508,-23.82942 15.02028,-18.27451c8.24391,3.02158 28.96153,12.69321 36.21272,17.16617c11.09254,6.83481 8.10002,21.75784 11.20768,32.57742l2.90619,1.84726l339.78356,44.71646c5.15057,0.79169 7.81226,4.38062 10.45947,8.07507l0,0l0.0144,-0.01318zm-286.9536,-21.77112l-61.43357,-8.31259l6.11459,36.11359l57.82233,5.99036l-2.50336,-33.79135l0,0zm84.46753,11.24182l-59.85092,-7.52094l3.22272,32.74896l56.6138,5.59454l0,-30.82257l0.0144,0zm24.60217,3.00836l0,30.07047l60.67094,5.26462c0.15836,-9.10425 2.76242,-18.0238 3.28033,-27.0621l-63.93687,-8.27298l0,0l-0.0144,0zm143.41203,43.5817l6.44543,-21.59952l-0.64734,-2.09793l-60.67108,-7.83759l-3.35217,25.92734l58.21075,5.6077l0.0144,0zm-247.57567,-0.69931l-55.69303,-5.3042l6.10019,36.1268l52.1106,2.96878l-2.50336,-33.79138l-0.0144,0zm79.56146,7.48135l-54.91611,-5.26462l2.46024,33.0788l52.47028,3.00836l0,-30.82254l0,0l-0.0144,0zm24.60217,2.25626l0,29.31839l53.29033,3.00836c-0.63303,-3.50977 4.34494,-26.12527 3.2803,-27.0621l-56.57063,-5.26465zm136.89464,12.78558l-55.73615,-5.26465l-3.28036,26.30997l51.95242,2.15073l1.17969,-1.17429l5.8988,-22.03497l-0.0144,0l0,0.01321zm-279.12691,69.15283l45.49244,0l-2.54651,-34.50385l-49.49213,-3.10074l6.5462,37.60458zm117.6301,-30.82257l-49.99567,-3.00836l2.46021,33.83087l47.54987,0l0,-30.82251l0,0l-0.0144,0zm24.60217,0.75208l0,30.0705l45.90968,0l4.10037,-27.04892l-50.01006,-3.00836l0,0l0,-0.01321zm70.49748,30.0705l46.72974,0l6.56055,-23.30167c-16.35828,-0.72568 -32.88922,-2.59933 -49.23309,-1.92639l-4.04279,25.22806l-0.0144,0zm-247.0146,68.69101c-33.14822,0.6861 -30.73118,48.25256 3.9709,44.82196c28.99026,-2.8764 27.26379,-45.46851 -3.9709,-44.82196zm277.88966,0.01318c-32.88922,0.34308 -31.55124,47.71161 3.13641,44.79565c29.81042,-2.50696 27.73865,-45.12555 -3.13641,-44.79565z"/>
        <path d="m344.5932,39.30698l11.61246,31.9451c6.12326,16.30894 6.41058,30.63992 7.89267,41.07295c1.48206,10.43303 -3.86111,23.02562 -7.06342,22.92998c-3.20227,-0.09567 -7.96606,-3.62595 -9.57825,-6.00952c-1.61221,-2.38358 -2.78445,-5.93988 -6.31213,-10.72354c-3.52774,-4.78366 -5.76608,-12.92598 -9.73795,6.99277c-11.16479,7.62769 -26.59775,8.53143 -40.11414,8.18799c-32.30859,-0.81335 -62.42378,-16.43024 -86.98628,-34.74028c-6.22472,-4.64529 -22.17143,-16.30373 -17.44868,-24.88939c12.76546,-16.10487 26.49937,-31.89009 42.18935,-45.73558c12.98276,-11.45963 29.87743,-15.56262 45.03383,-19.32224c15.15634,-3.75963 21.22021,-1.79396 37.36484,0.42911c16.14459,2.22305 27.53833,16.41002 33.14771,29.86266z"/>
        <path d="m182.52702,78.90001c0.45442,1.67577 0.37181,3.44356 0.99141,5.10091c2.68495,7.23705 13.13559,14.73187 19.68279,19.44608c35.02834,25.2467 81.70525,44.87698 126.56465,30.18192l6.73303,-3.35153c0.84665,4.69577 2.08594,8.61819 1.28046,13.46124c-3.34583,19.99854 -21.81012,34.12274 -44.32239,33.62555c-25.30051,-0.55246 -57.62328,-12.11697 -79.22676,-23.49738c-13.21828,-6.96078 -39.81996,-22.41086 -47.15201,-34.14108c-6.85689,-10.95682 -0.33037,-26.84883 8.01357,-35.81686c2.31322,-2.46759 4.48189,-3.35152 7.41458,-5.00883l0.02068,0z"/>
        <path d="m344.59912,136.70792l3.87827,-1.18805l-3.58627,-1.9631l4.03174,-0.36508l-3.1539,-2.66812l4.01489,0.47018l-2.59985,-3.26859l3.86328,1.28967l-1.95596,-3.73923l3.53946,2.0603l-1.21475,-4.06732l3.09213,2.74951l-0.4455,-4.24591l2.52313,3.33319l0.35376,-4.25381l1.86237,3.79153l1.13803,-4.09988l1.12305,4.09988l1.8624,-3.79153l0.33878,4.25381l2.53809,-3.33319l-0.44547,4.24591l3.0921,-2.74951l-1.21475,4.06732l3.53946,-2.0603l-1.95596,3.73923l3.86328,-1.28967l-2.59985,3.26859l4.01489,-0.47415l-3.1539,2.67209l4.03174,0.36508l-3.60123,1.9631l3.89322,1.18805l-3.89322,1.19196l3.60123,1.9631l-4.03174,0.36511l3.1539,2.66812l-4.01489,-0.47015l2.59985,3.26855l-3.86328,-1.29364l1.95596,3.73874l-3.53946,-2.05585l1.21475,4.06732l-3.0921,-2.74509l0.44547,4.24146l-2.53809,-3.33319l-0.33878,4.24988l-1.8624,-3.7876l-1.12305,4.09991l-1.13803,-4.09991l-1.86237,3.7876l-0.35376,-4.24988l-2.52313,3.33319l0.4455,-4.24146l-3.09213,2.74509l1.21475,-4.06732l-3.53946,2.05585l1.95596,-3.73874l-3.86328,1.29364l2.59985,-3.26855l-4.01489,0.47015l3.1539,-2.66812l-4.03174,-0.36511l3.60123,-1.9631l-3.89322,-1.19196z"/>
      </g>
    </symbol>
  </defs>
</svg>