<svg xmlns="http://www.w3.org/2000/svg">
  <defs>
    <symbol id="icon-profile" viewBox="0 0 110 135">
      <g>
          <path d="M55,22.5c-11.5,0-20.8,9.4-20.8,20.8h0c0,5.4,2.6,10.3,6.3,14.1-13.3,3.8-22.9,15.6-22.9,29.7,0,5.7,4.7,10.4,10.4,10.4h54.2c5.7,0,10.4-4.7,10.4-10.4,0-14.1-9.6-25.9-22.9-29.7,3.7-3.8,6.2-8.7,6.2-14.1h0c0-11.5-9.4-20.8-20.8-20.8h0ZM55,26.7c9.2,0,16.7,7.4,16.7,16.7,0,5.3-2.5,10.2-6.7,13.3h0c-.7.5-1,1.3-.8,2.2.2.8.9,1.4,1.7,1.6,13,2.2,22.5,13.5,22.5,26.7,0,3.5-2.8,6.2-6.2,6.2H27.9c-3.5,0-6.2-2.8-6.2-6.2,0-13.2,9.5-24.5,22.6-26.7.8-.1,1.5-.8,1.7-1.6.2-.8-.1-1.7-.8-2.2-4.2-3.1-6.8-8.1-6.8-13.4h0c0-9.2,7.4-16.7,16.7-16.7h0Z"/>
      </g>
    </symbol>

    <symbol id="icon-list" viewBox="0 0 110 135">
      <g>
        <path d="M32.1,18.3c-5.7,0-10.4,4.7-10.4,10.4v62.5c0,5.7,4.7,10.4,10.4,10.4h29.2c3.2,0,6.3-1.3,8.6-3.6l14.9-14.9c2.3-2.3,3.6-5.4,3.6-8.6V28.8c0-5.7-4.7-10.4-10.4-10.4h-45.8ZM32.1,22.5h45.8c3.5,0,6.2,2.8,6.2,6.2v45.8c0,.7-.1,1.4-.3,2.1h-14.3c-3.4,0-6.2,2.8-6.2,6.2v14.3c-.7.2-1.4.3-2.1.3h-29.2c-3.5,0-6.2-2.8-6.2-6.2V28.8c0-3.5,2.8-6.2,6.2-6.2h0ZM69.6,80.8h11.6l-13.7,13.7v-11.6c0-1.2.9-2.1,2.1-2.1h0Z"/>
        <path d="M38.3,62.1c-2.3,0-4.2,1.9-4.2,4.2s1.9,4.2,4.2,4.2,4.2-1.9,4.2-4.2-1.9-4.2-4.2-4.2Z"/>
        <path d="M48.8,64.2c-1.2,0-2.1.9-2.1,2.1s.2,1.1.6,1.5.9.6,1.5.6h25c.6,0,1.1-.2,1.5-.6s.6-.9.6-1.5-.2-1.1-.6-1.5-.9-.6-1.5-.6h-25Z"/>
        <path d="M38.3,49.6c-2.3,0-4.2,1.9-4.2,4.2s1.9,4.2,4.2,4.2,4.2-1.9,4.2-4.2-1.9-4.2-4.2-4.2Z"/>
        <path d="M48.8,51.7c-1.2,0-2.1.9-2.1,2.1s.2,1.1.6,1.5.9.6,1.5.6h25c.6,0,1.1-.2,1.5-.6s.6-.9.6-1.5-.2-1.1-.6-1.5-.9-.6-1.5-.6h-25Z"/>
        <path d="M38.3,37.1c-2.3,0-4.2,1.9-4.2,4.2s1.9,4.2,4.2,4.2,4.2-1.9,4.2-4.2-1.9-4.2-4.2-4.2Z"/>
        <path d="M48.8,39.2c-1.2,0-2.1.9-2.1,2.1s.2,1.1.6,1.5.9.6,1.5.6h25c.6,0,1.1-.2,1.5-.6s.6-.9.6-1.5-.2-1.1-.6-1.5-.9-.6-1.5-.6h-25Z"/>
      </g>
    </symbol>
  </defs>
</svg>